<?xml version="1.0" encoding="utf-8"?>
<!DOCTYPE svg [
	<!ENTITY ns_flows "http://ns.adobe.com/Flows/1.0/">
]>

<svg version="1.1" baseProfile="full" xmlns="http://www.w3.org/2000/svg" xmlns:xlink="http://www.w3.org/1999/xlink"
    x="0px" y="0px" width="352px" height="66px" viewBox="0 0 352 66" enable-background="new 0 0 352 66" xml:space="preserve">
<metadata>Hive Iconsprite by Phil Wareham - http://twitter.com/philwareham</metadata>
<style type="text/css" >
<![CDATA[
g { fill: #333333; }
]]>
</style>

<g id="icon-write">
    <polygon points="16,4 18,6 16,8 14,6"/>
    <polygon points="7,17 4,18 5,15 13,7 15,9"/>
</g>

<g id="icon-code">
    <polygon points="32,7 30,5 24,11 30,17 32,15 28,11"/>
    <polygon points="34,15 36,17 42,11 36,5 34,7 38,11"/>
</g>

<g id="icon-view">
    <path d="M46,11c0-1,4-6,9-6s9,5,9,6s-4,6-9,6S46,12,46,11z M55,15c2,0,4-2,4-4s-2-4-4-4s-4,2-4,4S53,15,55,15z"/>
    <circle cx="55" cy="11" r="2"/>
</g>

<g id="icon-mail">
    <path d="M69,5h16v12l-16,0L69,5z M77,12.5c-1,0-1.5-0.5-1.5-0.5l-4,4h11l-4-4C78.5,12,78,12.5,77,12.5z M70,15.5l4.5-4.5L70,6.5V15.5z M84,15.5v-9L79.5,11L84,15.5z M78.5,10l4-4h-11l4,4c0,0,1,1,1.5,1S78.5,10,78.5,10z"/>
</g>

<g id="icon-plus">
    <path d="M92,11c0-4,3-7,7-7s7,3,7,7s-3,7-7,7S92,15,92,11z M104,10h-4V6h-2v4h-4v2h4v4h2v-4h4V10z"/>
</g>

<g id="icon-minus">
    <path d="M114,11c0-4,3-7,7-7s7,3,7,7s-3,7-7,7S114,15,114,11z M126,10h-10v2h10V10z"/>
</g>

<g id="icon-delete">
    <path d="M136,11c0-4,3-7,7-7s7,3,7,7s-3,7-7,7S136,15,136,11z M147.5,8L146,6.5l-3,3l-3-3L138.5,8l3,3l-3,3l1.5,1.5l3-3l3,3l1.5-1.5l-3-3L147.5,8z"/>
</g>

<g id="icon-ban">
    <path d="M158,11c0-4,3-7,7-7s7,3,7,7s-3,7-7,7S158,15,158,11z M165,16c3,0,5-2,5-5s-2-5-5-5s-5,2-5,5S162,16,165,16z"/>
    <polygon points="170,7.5 168.5,6 160,14.5 161.5,16"/>
</g>

<g id="icon-warning">
    <path d="M179,18l8-14L195,18H179z M188,8h-2v6h2V8z M188,15h-2v2h2V15z"/>
</g>

<g id="icon-search">
    <path d="M210,13l1-1l3,2l4,4c0,0,0,1-0.5,1.5S216,20,216,20l-4-4L210,13z"/>
    <path d="M201,9c0-3,2.5-6,6-6s6,2.5,6,6s-2.5,6-6,6S201,12,201,9z M207,13c2,0,4-1.75,4-4s-1.75-4-4-4s-4,1.75-4,4S204.75,13,207,13z"/>
</g>

<g id="icon-yes">
    <polygon points="237,4 227,14 225,12 223,14 227,18 239,6"/>
</g>

<g id="icon-no">
    <polygon points="260,6 258,4 253,9 248,4 246,6 251,11 246,16 248,18 253,13 258,18 260,16 255,11"/>
</g>

<g id="icon-time">
    <path d="M268,11c0-4,3-7,7-7s7,3,7,7s-3,7-7,7S268,15,268,11z M275,16c2.75,0,5-2,5-5s-2-5-5-5s-5,2-5,5S272,16,275,16z"/>
    <polygon points="274,11 274,7 276,7 276,12 272,13.5 271.5,12"/>
</g>

<g id="icon-cog">
    <path d="M303.5,10c0.125,0.75,0.125,1.5-0,2.125c-0.75-0.25-1.5,0.125-1.75,0.875c-0.25,0.75,0,1.5,0.625,1.875c-0.5,0.5-0.875,1-1.5,1.5c-0.375-0.625-1.125-1-1.875-0.625c-0.75,0.25-1,1-0.875,1.75c-0.75,0.125-1.5,0.125-2.125-0c0.25-0.75-0.125-1.5-0.875-1.75c-0.75-0.25-1.5,0-1.875,0.625c-0.5-0.5-1-1-1.5-1.5c0.625-0.375,1-1.125,0.625-1.875c-0.25-0.75-1-1-1.75-0.875c-0.125-0.75-0.125-1.5,0-2.125c0.75,0.25,1.5-0.125,1.75-0.875s-0-1.5-0.625-1.875c0.5-0.5,1-1,1.5-1.5c0.375,0.625,1.125,1,1.875,0.625c0.75-0.25,1-1,0.875-1.75c0.75-0.125,1.5-0.125,2.125,0c-0.25,0.75,0.125,1.5,0.875,1.75c0.75,0.25,1.5-0,1.875-0.625c0.5,0.5,1,1,1.5,1.5c-0.625,0.375-1,1.125-0.625,1.875C302,9.75,302.625,10.125,303.5,10z M297,14c1.625,0,3-1.375,3-3c0-1.625-1.375-3-3-3s-3,1.375-3,3C294,12.625,295.375,14,297,14z"/>
</g>

<g id="icon-repeat">
    <path d="M321.75,8c0.75,0.75,1.25,2,1.25,3c0,2.25-1.75,4-4,4s-4-1.75-4-4s1.75-4,4-4V5c-3.25,0-6,2.75-6,6s2.75,6,6,6s6-2.75,6-6c0-1.75-0.75-3.25-1.75-4.25L321.75,8L321.75,8L321.75,8z"/>
    <polygon points="319,9 319,3 322,6"/>
</g>

<g id="icon-off">
    <path d="M343,5.25v2.25c1.25,0.75,2,2,2,3.5c0,2.25-1.75,4-4,4s-4-1.75-4-4c0-1.5,0.81-2.75,2-3.5V5.25c-2.25,0.75-4,3-4,5.75c0,3.25,2.75,6,6,6s6-2.75,6-6C347,8.25,345.25,6.25,343,5.25z"/>
    <rect x="340" y="3" width="2" height="5"/>
</g>

<g id="icon-arrow-n">
    <polygon points="11,27 6,32 9,32 9,39 13,39 13,32 16,32"/>
</g>

<g id="icon-arrow-e">
    <polygon points="39,33 34,28 34,31 27,31 27,35 34,35 34,38"/>
</g>

<g id="icon-arrow-s">
    <polygon points="55,39 60,34 57,34 57,27 53,27 53,34 50,34"/>
</g>

<g id="icon-arrow-w">
    <polygon points="71,33 76,38 76,35 83,35 83,31 76,31 76,28"/>
</g>

<g id="icon-star">
    <polygon points="99,25.5 100.5,31 106,31 101.5,34 103.5,39.5 99,35.5 94.5,39.5 96.5,34 92,31 97.5,31"/>
</g>

<g id="icon-refresh">
    <path d="M116.25,36.75c1,1.5,2.75,2.25,4.75,2.25c3.5,0,6-2.5,6-6h-2c0,2.25-1.75,4-4,4c-1.5,0-2.5-0.5-3.25-1.75L116.25,36.75z"/>
    <path d="M125.75,29.25C124.5,28,123,27,121,27c-3.5,0-6,2.5-6,6h2c0-2.25,1.75-4,4-4c1.5,0,2.5,0.5,3.25,1.75L125.75,29.25z"/>
    <polygon points="119,34 115,38 115,34"/>
    <polygon points="123,32 127,28 127,32"/>
</g>

<g id="icon-list">
    <rect x="136" y="27" width="2" height="2"/>
    <rect x="136" y="30" width="2" height="2"/>
    <rect x="136" y="33" width="2" height="2"/>
    <rect x="136" y="36" width="2" height="2"/>
    <rect x="140" y="28" width="10" height="1"/>
    <rect x="140" y="31" width="10" height="1"/>
    <rect x="140" y="34" width="10" height="1"/>
    <rect x="140" y="37" width="10" height="1"/>
</g>

<g id="icon-grid">
    <rect x="157" y="28" width="16" height="1"/>
    <rect x="157" y="31" width="16" height="1"/>
    <rect x="157" y="34" width="16" height="1"/>
    <rect x="157" y="37" width="16" height="1"/>
    <rect x="157" y="28" width="1" height="10"/>
    <rect x="160" y="28" width="1" height="10"/>
    <rect x="163" y="28" width="1" height="10"/>
    <rect x="166" y="28" width="1" height="10"/>
    <rect x="169" y="28" width="1" height="10"/>
    <rect x="172" y="28" width="1" height="10"/>
</g>

<g id="icon-image">
    <path d="M179,39V27h16v12H179z M194,28h-14v10h14V28z"/>
    <polygon points="181,37 184,34 185,35 189,31 193,35 193,37"/>
    <circle cx="183" cy="31" r="2"/>
</g>

<g id="icon-user">
    <path d="M212,37v2h2v-1.5c0-3-0.5-4.5-5-4.5s-5,1.5-5,4.5V39h2v-2l1,1v1h4v-1L212,37z"/>
    <path d="M212,30c0,1.5-1.5,3-3,3l0,0c-1.5,0-3-1.5-3-3v-2c0-1.5,1.5-2.5,3-2.5l0,0c1.5,0,3,1,3,2.5V30z M208,28h-1v1h1V28z M211,28h-1v1h1V28z"/>
</g>

<g id="icon-target">
    <path d="M224,33c0-4,3-7,7-7s7,3,7,7s-3,7-7,7S224,37,224,33z M231,38c3,0,5-2,5-5s-2-5-5-5s-5,2-5,5S228,38,231,38z"/>
    <rect x="230" y="25" width="2" height="5"/>
    <rect x="230" y="36" width="2" height="5"/>
    <rect x="223" y="32" width="5" height="2"/>
    <rect x="234" y="32" width="5" height="2"/>
</g>

<g id="icon-comment">
    <polygon points="260,28 246,28 246,37 254,37 258,41 258,37 260,37"/>
</g>

<g id="icon-trash">
    <path d="M280,27h-3c0-1-1-2-2-2s-2,1-2,2h-3c-1,0-1,2-1,2h12C281,29,281,27,280,27z M275,26c0.5,0,1,0.5,1,1h-2C274,26.5,274.5,26,275,26z"/>
    <polygon points="279,29 279,39 278,39 278,29 277,29 277,39 276,39 276,29 275,29 275,39 274,39 274,29 273,29 273,39 272,39 272,29 270,29 270,40 280,40 280,29"/>
</g>

<g id="icon-favourite">
    <path d="M299.5,27c2.5-0.5,5,2,3.5,5.5c-2,4.5-6,6.5-6,6.5s-4-2-6-6.5c-1.5-3.5,1-6,3.5-5.5 C296.5,27.5,297,29,297,29S297.5,27.5,299.5,27z"/>
</g>

<g id="icon-folder">
    <path d="M324,30v-3h-1v-1h-2.5l-1,1H311v12h14l2-9H324z M312,28h11v2h-9l-2,7V28z M324.5,38H313l2-7h11L324.5,38z"/>
</g>

<g id="icon-file">
    <path d="M346,29v11h-10V26h7L346,29z M343,27h-6v12h8V29L343,27z"/>
    <polygon points="343,29 343,27 342,27 342,30 345,30 345,29"/>
    <rect x="338" y="37" width="6" height="1"/>
    <rect x="338" y="35" width="6" height="1"/>
    <rect x="338" y="33" width="6" height="1"/>
    <rect x="338" y="31" width="6" height="1"/>
</g>

<g id="icon-attach">
    <path fill="none" stroke="#333333" stroke-miterlimit="10" d="M4.5,53.5c0,0,6,6,7.5,7.5c1,1,3.03,1.5,4.5,0c1.5-1.5,1-3.5,0-4.5l-8-7.5c-1-1-2.5-1.5-3.5-0.5s-0.5,2.5,0.5,3.5l7.5,7.5c0.5,0.5,1.5,0.5,2,0s0.5-1.5,0-2l-7.5-7"/>
</g>

<!-- icon: locked (x0,y88) -->

<!-- icon: unlocked (x44,y88) -->

</svg>
