<?xml version="1.0" encoding="utf-8"?>
<!DOCTYPE svg [
	<!ENTITY ns_flows "http://ns.adobe.com/Flows/1.0/">
]>
<?xml-stylesheet href="svg.css" type="text/css"?> 
<svg version="1.1" baseProfile="full" xmlns="http://www.w3.org/2000/svg" xmlns:xlink="http://www.w3.org/1999/xlink"
    x="0" y="0" width="704px" height="88px" viewBox="0 0 704 88" enable-background="new 0 0 704 88" xml:space="preserve">
<style type="text/css" >
<![CDATA[
circle,
path,
polygon,
rect {
    fill: #333333;
}
]]>
</style>

<!-- icon: write (x0y0) -->
<polygon points="33,7 37,11 33,15 29,11"/>
<polygon points="14,34 8,36 10,30 27,13 31,17"/>

<!-- icon: code (x44y0) -->
<polygon points="63,13 60,10 48,22 60,34 63,31 54,22"/>
<polygon points="70,31 73,34 85,22 73,10 70,13 79,22"/>

<!-- icon: view (x88y0) -->
<path d="M94,22c0-2,7-10,16-10s16,8,16,10s-7,10-16,10S94,24,94,22z M110,15c-4,0-7,3-7,7s3,7,7,7s7-3,7-7S114,15,110,15z"/>
<circle cx="110" cy="22" r="3"/>

<!-- icon: mail (x132,y0) -->
<path d="M138,34V10h32v24H138z M154,25c-2,0-3-1-3-1l-8,8h22l-8-8C157,24,156,25,154,25zM140,31l9-9l-9-9V31z M168,31V13l-9,9L168,31z M157,20l8-8h-22l8,8c0,0,2,2,3,2S157,20,157,20z"/>

<!-- icon: plus (x176,y0) -->
<path d="M210,22c0,6-5,12-12,12s-12-5-12-12s5-12,12-12S210,15,210,22z M206,20h-6v-6h-4v6h-6v4h6v6h4v-6h6V20z"/>

<!-- icon: minus (x220,y0) -->
<path d="M254,22c0,6-5,12-12,12s-12-5-12-12s5-12,12-12S254,15,254,22z M250,20h-16v4h16V20z"/>

<!-- icon: delete (x264,y0) -->
<path d="M298,22c0,6-5,12-12,12s-12-5-12-12s5-12,12-12S298,15,298,22z M293,18l-3-3l-4,4l-4-4l-3,3l4,4l-4,4l3,3l4-4l4,4l3-3l-4-4L293,18z"/>

<!-- icon: ban (x308,y0) -->
<path d="M318,22c0-6,5-12,12-12s12,5,12,12s-5,12-12,12S318,28,318,22z M330,31c5,0,9-4,9-9s-4-9-9-9s-9,4-9,9S325,31,330,31z"/>
<polygon points="335,14 338,17 325,30 322,27"/>

<!-- icon: warning (x352,y0) -->
<path d="M376,9c0,0-1-2-2-2s-2,2-2,2l-13,24c0,0-0.5,1,0,2c0.5,1,2,1,2,1h26c0,0,1.5,0,2-1c0.527-1,0-2,0-2L376,9z M361,34l13-24l13,24H361z"/>
<polygon points="375,26 373,26 372,16 376,16"/>
<circle cx="374" cy="30" r="2"/>

<!-- icon: search (x396,y0) -->
<path d="M419,25l2-2l5,3l6,6c0,0,0,2-1,3s-3,1-3,1l-6-6L419,25z"/>
<path d="M404,18c0-5.5,4.478-10,10-10s10,4.5,10,10s-4.5,10-10,10S404,23.5,404,18z M414,25c4,0,7-3,7-7s-3-7-7-7s-7,3-7,7S410,25,414,25z"/>

<!-- icon: yes (x440,y0) -->
<polygon class="experimental-svg-color" points="472,11 456,27 451,22 448,25 456,33 475,14"/>

<!-- icon: no (x484,y0) -->
<polygon points="517,14 514,11 506,19 498,11 495,14 503,22 495,30 498,33 506,25 514,33 517,30 509,22"/>

<!-- icon: time (x528,y0) -->
<path d="M538,22c0-6,5-12,12-12s12,5,12,12s-5,12-12,12S538,28,538,22z M550,31c5,0,9-4,9-9s-4-9-9-9s-9,4-9,9S545,31,550,31z"/>
<polygon points="549,22 549,15 552,15 552,23 547,28 545,26"/>

<!-- icon: cog (x572,y0) -->
<path d="M606.75,20c0.25,1.5,0.25,2.75-0,4.25c-1.5-0.5-3,0.25-3.5,1.75c-0.5,1.5,0,3,1.25,3.75c-0.75,1-1.75,2-3,3c-0.75-1.25-2.25-2-3.75-1.25c-1.5,0.5-2,2-1.75,3.5c-1.5,0.25-2.75,0.25-4.25-0c0.5-1.5-0.25-3-1.75-3.5c-1.5-0.5-3,0-3.75,1.25c-1-0.75-2-1.75-3-3c1.25-0.75,2-2.25,1.25-3.75s-2-2-3.5-1.75c-0.25-1.5-0.25-2.75,0-4.25c1.5,0.5,3-0.25,3.5-1.75c0.5-1.5-0-3-1.25-3.75c0.75-1,1.75-2.138,3-3c0.75,1.25,2.25,2,3.75,1.25c1.5-0.5,2-2,1.75-3.5c1.5-0.25,2.75-0.25,4.25,0c-0.5,1.5,0.25,3,1.75,3.5c1.5,0.5,3-0,3.75-1.25c1,0.75,2,1.75,3,3c-1.25,0.75-2,2.25-1.25,3.75C603.75,19.5,605.25,20.25,606.75,20z M594,28c3.25,0,6-2.75,6-6s-2.75-6-6-6s-6,2.75-6,6S590.75,28,594,28z"/>

<!-- icon: repeat (x616,y0) -->
<path d="M647,14l-3,3C645,18,646,20,646,22c0,5-3.5,8-8,8s-8-3.5-8-8 s3.5-8,8-8v-4c-6,0-12,5-12,12s5,12,12,12s12-5,12-12C650,19,649,16,647,14z"/>
<polygon points="638,19 638,5 645,12 "/>

<!-- icon: logout (x660,y0) -->
<path d="M686,10.5v4.5c2.5,1.5,4,4,4,7c0,4.5-3.5,8-8,8s-8-3.5-8-8c0-3,1.5-5.5,4-7v-4.5c-4.5,1.5-8,6-8,11.5c0,6.5,5.5,12,12,12s12-5.5,12-12C694,16.5,690.5,12.5,686,10.5z"/>
<rect x="680" y="8" width="4" height="8"/>

<!-- icon: arrow-n (x0,y44) -->
<polygon points="22,54 12,64 18,64 18,78 26,78 26,64 32,64"/>

<!-- icon: arrow-e (x44,y44) -->
<polygon points="78,66 68,56 68,62 54,62 54,70 68,70 68,76"/>

<!-- icon: arrow-s (x88,y44) -->
<polygon points="110,78 120,68 114,68 114,54 106,54 106,68 100,68"/>

<!-- icon: arrow-w (x132,y44) -->
<polygon points="142,66 152,76 152,70 166,70 166,62 152,62 152,56"/>

<!-- icon: star (x176,y44) -->
<polygon points="197,52 200,62 211,62 202,68 206,78 197,71 188,78 192,68 183,62 194,62"/>

<!-- icon: refresh (x220,y44) -->
<path d="M251.5,58.5C249.25,55.75,245.75,54,242,54c-6.5,0-12,5.5-12,12h4c0-4.5,3.5-8,8-8c2.75,0,5,1.25,6.5,3.5L251.5,58.5z"/>
<polygon points="246,63 254,56 254,64"/>
<path d="M232.5,73.5C234.75,76.25,238.25,78,242,78c6.5,0,12-5.5,12-12h-4c0,4.5-3.5,8-8,8c-2.75,0-5-1.25-6.5-3.5L232.5,73.5z"/>
<polygon points="238,68 230,76 230,68"/>

<!-- icon: list (x264,y44) -->
<path d="M272,57c0-1.5,1.5-3,3-3s3,1.343,3,3s-1.5,3-3,3S272,58.5,272,57z M275,58c0.552,0,1-0.5,1-1s-0.448-1-1-1s-1,0.5-1,1S274.5,58,275,58z"/>
<path d="M272,63c0-1.5,1.5-3,3-3s3,1.343,3,3s-1.5,3-3,3S272,64.5,272,63z M275,64c0.552,0,1-0.5,1-1s-0.448-1-1-1s-1,0.5-1,1S274.5,64,275,64z"/>
<path d="M272,69c0-1.5,1.5-3,3-3s3,1.343,3,3s-1.5,3-3,3S272,70.5,272,69z M275,70c0.552,0,1-0.5,1-1s-0.448-1-1-1s-1,0.5-1,1S274.5,70,275,70z"/>
<path d="M272,75c0-1.5,1.5-3,3-3s3,1.343,3,3s-1.5,3-3,3S272,76.5,272,75z M275,76c0.552,0,1-0.5,1-1s-0.448-1-1-1s-1,0.5-1,1S274.5,76,275,76z"/>
<rect x="280" y="56" width="20" height="2"/>
<rect x="280" y="62" width="20" height="2"/>
<rect x="280" y="68" width="20" height="2"/>
<rect x="280" y="74" width="20" height="2"/>

<!-- icon: grid (x308,y44) -->
<rect x="314" y="56" width="32" height="2"/>
<rect x="314" y="62" width="32" height="2"/>
<rect x="314" y="68" width="32" height="2"/>
<rect x="314" y="74" width="32" height="2"/>
<rect x="314" y="56" width="2" height="20"/>
<rect x="320" y="56" width="2" height="20"/>
<rect x="326" y="56" width="2" height="20"/>
<rect x="332" y="56" width="2" height="20"/>
<rect x="338" y="56" width="2" height="20"/>
<rect x="344" y="56" width="2" height="20"/>

<!-- icon: image (x352,y44) -->
<path d="M358,78V54h32v24H358z M388,56h-28v20h28V56z"/>
<circle cx="365" cy="61" r="3"/>
<polygon points="362,74 367,69 369,71 378,62 386,70 386,74"/>

<!-- icon: user (x396,y44) -->
<path d="M418,67c-9,0-10,3-10,9v2h4v-3c0,0,0-1,1-1s1,1,1,1v3h8v-3c0,0,0-1,1-1s1,1,1,1v3h4v-2C428,70,427,67,418,67z"/>
<path d="M424,61c0,3-3,6-6,6l0,0c-3,0-6-3-6-6v-4c0-3,3-5,6-5l0,0c3,0,6,2,6,5V61z M415.5,59 c1,0,1.5-0.5,1.5-1.5s-0.5-1.5-1.5-1.5s-1.5,0.5-1.5,1.5S414.671,59,415.5,59z M420.5,59c1,0,1.5-0.5,1.5-1.5 s-0.5-1.5-1.5-1.5s-1.5,0.5-1.5,1.5S419.5,59,420.5,59z"/>

<!-- icon: target (x440,y44) -->
<path d="M450,66c0-6,5-12,12-12s12,5,12,12c0,6-5,12-12,12S450,72,450,66z M462,75c5,0,9-4,9-9s-4-9-9-9s-9,4-9,9S457,75,462,75z"/>
<rect x="460" y="52" width="4" height="10"/>
<rect x="460" y="70" width="4" height="10"/>
<rect x="448" y="64" width="10" height="4"/>
<rect x="466" y="64" width="10" height="4"/>

<!-- icon: comment (x484,y44) -->
<polygon points="518,56 494,56 494,74 508,74 514,80 514,74 518,74"/>

<!-- icon: trash (x528,y44) -->
<path d="M542,56c-2,0-2,4-2,4h20c0,0,0-4-2-4h-4c0-2-2-4-4-4s-4,2-4,4H542z M550,54c1,0,2,1,2,2 c-2,0-2,0-4,0C548,55,549,54,550,54z"/>
<polygon points="558,78 558,60 556,60 556,76 554,76 554,60 552,60 552,76 550,76 550,60 548,60 548,76 546,76 546,60 542,60 542,78"/>

<!-- icon: favourite (x572,y44) -->
<path d="M599,54c5-1,10,4.5,7,11c-4,9-12,13-12,13s-8-4-12-13c-3-6.5,2-12,7-11c4,1,5,4,5,4 S595,55,599,54z"/>

<!-- icon: folder (x616,y44) -->
<path d="M650,60v-6h-3v-2h-6l-2,2h-15v24h26l4-18H650z M626,56h22v4h-20l-2,8V56z M649,76h-23l4-14h22L649,76z"/>

<!-- icon: file (x660,y44) -->
<polygon points="686,58 686,54 684,54 684,60 690,60 690,58"/>
<path d="M692,58v22h-20V52h14L692,58z M686,54h-12v24h16V58L686,54z"/>
<rect x="676" y="74" width="12" height="2"/>
<rect x="676" y="70" width="12" height="2"/>
<rect x="676" y="66" width="12" height="2"/>
<rect x="676" y="62" width="12" height="2"/>

<!-- icon: locked (x0,y88) -->

<!-- icon: unlocked (x44,y88) -->

</svg>
