<?xml version="1.0" encoding="utf-8"?>
<!DOCTYPE svg>
<svg version="1.1" baseProfile="full" xmlns="http://www.w3.org/2000/svg" xmlns:xlink="http://www.w3.org/1999/xlink" x="0px" y="0px" width="384px" height="72px" viewBox="0 0 384 72" enable-background="new 0 0 384 72" xml:space="preserve">
<metadata>Hive Iconsprite by Phil Wareham - http://twitter.com/philwareham</metadata>

<style type="text/css">
	<![CDATA[
	g { fill: #333333; }
	]]>
</style>

<g id="icon-write">
	<polygon points="13,1 15,3 13,5 11,3"/>
	<polygon points="4,14 1,15 2,12 10,4 12,6"/>
</g>

<g id="icon-code">
	<polygon points="31,5 29,3 24,8 29,13 31,11 28,8"/>
	<polygon points="33,11 35,13 40,8 35,3 33,5 36,8"/>
</g>

<g id="icon-view">
	<path d="M48,8c0-1,3-6,8-6s8,5,8,6s-3,6-8,6S48,9,48,8z M56,12c2,0,4-2,4-4s-2-4-4-4s-4,2-4,4S54,12,56,12z"/>
	<circle cx="56" cy="8" r="2"/>
</g>

<g id="icon-mail">
	<path d="M72,2h16v12l-16,0V2z M80,9.5c-1,0-1.5-0.5-1.5-0.5l-4,4h11l-4-4C81.5,9,81,9.5,80,9.5z M73,12.5L77.5,8L73,3.5V12.5z M87,12.5v-9L82.5,8L87,12.5z M81.5,7l4-4h-11l4,4c0,0,1,1,1.5,1S81.5,7,81.5,7z"/>
</g>
	
<g id="icon-plus">
	<path d="M97,8c0-4,3-7,7-7s7,3,7,7s-3,7-7,7S97,12,97,8z M109,7h-4V3h-2v4h-4v2h4v4h2V9h4V7z"/>
</g>

<g id="icon-minus">
	<path d="M121,8c0-4,3-7,7-7s7,3,7,7s-3,7-7,7S121,12,121,8z M133,7h-10v2h10V7z"/>
</g>

<g id="icon-delete">
	<path d="M145,8c0-4,3-7,7-7s7,3,7,7s-3,7-7,7S145,12,145,8z M156.5,5L155,3.5l-3,3l-3-3L147.5,5l3,3l-3,3l1.5,1.5l3-3l3,3l1.5-1.5l-3-3L156.5,5z"/>
</g>

<g id="icon-ban">
	<path d="M169,8c0-4,3-7,7-7s7,3,7,7s-3,7-7,7S169,12,169,8z M176,13c3,0,5-2,5-5s-2-5-5-5s-5,2-5,5S173,13,176,13z"/>
	<polygon points="179.5,3 181,4.5 172.5,13 171,11.5"/>
</g>

<g id="icon-warning">
	<path d="M192,15l8-14l8,14H192z M201,5h-2v6h2V5z M201,12h-2v2h2V12z"/>
</g>

<g id="icon-search">
	<path d="M225,10l1-1l3,2l3,3c0,0,0,1-0.5,1.5S230,16,230,16l-3-3L225,10z"/>
	<path d="M216,6c0-3.25,2.75-6,6-6c3.25,0,6,2.75,6,6s-2.75,6-6,6C218.75,12,216,9.25,216,6z M222,10c2.25,0,4-1.75,4-4s-1.75-4-4-4s-4,1.75-4,4S219.75,10,222,10z"/>
</g>

<g id="icon-yes">
	<polygon points="254,1 244,11 242,9 240,11 244,15 256,3"/>
</g>

<g id="icon-no">
	<polygon points="280,3 278,1 273,6 268,1 266,3 271,8 266,13 268,15 273,10 278,15 280,13 275,8"/>
</g>

<g id="icon-time">
	<path d="M289,8c0-4,3-7,7-7s7,3,7,7s-3,7-7,7S289,12,289,8z M296,13c3,0,5-2,5-5s-2-5-5-5s-5,2-5,5S293,13,296,13z"/>
	<polygon points="295,8 295,4 297,4 297,9 293,10.5 292.5,9"/>
</g>

<g id="icon-cog">
	<path d="M325.5,7c0.115,0.75,0.125,1.25,0,2c-0.75-0.25-1.5,0.165-1.875,0.875c-0.25,0.75-0,1.5,0.625,1.875c-0.5,0.5-0.875,1-1.5,1.5c-0.375-0.625-1.125-1-1.875-0.625c-0.75,0.25-1,1.125-0.875,1.875c-0.75,0.125-1.25,0.125-2,0c0.25-0.75-0.125-1.5-0.875-1.875c-0.75-0.25-1.5-0-1.875,0.625c-0.5-0.375-1-0.875-1.5-1.5c0.625-0.375,0.875-1.125,0.625-1.875C314,9.125,313.25,8.75,312.5,9c-0.115-0.75-0.125-1.25,0-2c0.75,0.25,1.5-0.125,1.875-0.875s0-1.5-0.625-1.875c0.405-0.5,0.875-1,1.5-1.5c0.375,0.625,1.125,0.875,1.875,0.625c0.75-0.25,1-1,0.875-1.75c0.75-0.125,1.25-0.125,2,0c-0.25,0.75,0.125,1.5,0.875,1.75c0.75,0.25,1.5,0,1.875-0.625c0.5,0.375,1,0.875,1.5,1.5c-0.625,0.375-0.875,1.125-0.625,1.875C323.875,6.875,324.75,7.25,325.5,7z M319,11c1.625,0,3-1.375,3-3c0-1.625-1.375-3-3-3s-3,1.375-3,3C316,9.625,317.375,11,319,11z"/>
</g>

<g id="icon-repeat">
	<path d="M347.25,3.757l-1.375,1.375C346.5,5.875,347,6.875,347,8c0,2.25-1.751,4-4,4s-4-1.75-4-4s1.75-4,4-4v2l3-3l-3-3v2c-3.25,0-6,2.75-6,6s2.75,6,6,6s6-2.75,6-6C349,6.375,348.375,4.875,347.25,3.75z"/>
</g>

<g id="icon-off">
	<path d="M369,2.25V4.5c1.25,0.75,2,2,2,3.5c0,2.25-1.75,4-4,4s-4-1.75-4-4c0-1.5,0.75-2.75,2-3.5V2.25c-2.25,0.75-4,3.125-4,5.75c0,3.25,2.75,6,6,6s6-2.75,6-6C373,5.375,371.25,3.125,369,2.25z"/>
	<rect x="366" width="2" height="5"/>
</g>

<g id="icon-arrow-n">
	<polygon points="8,26 3,31 6,31 6,38 10,38 10,31 13,31"/>
</g>

<g id="icon-arrow-e">
	<polygon points="38,32 33,27 33,30 26,30 26,34 33,34 33,37"/>
</g>

<g id="icon-arrow-s">
	<polygon points="56,38 61,33 58,33 58,26 54,26 54,33 51,33"/>
</g>

<g id="icon-arrow-w">
	<polygon points="74,32 79,37 79,34 86,34 86,30 79,30 79,27"/>
</g>

<g id="icon-star">
	<polygon points="104,25 105.5,30 111,30 106.5,33 108.5,38.5 104,34.5 99.5,38.5 101.5,33 97,30 102.5,30"/>
</g>

<g id="icon-refresh">
	<path d="M132.75,28.25C131.5,26.75,130,26,128,26c-3.25,0-6,2.75-6,6h2c0-2.25,1.75-4,4-4c1.25,0,2.5,0.75,3.25,1.75L130,31h4v-4L132.75,28.25z"/>
	<path d="M132,32c0,2.25-1.75,4-4,4c-1.25,0-2.5-0.75-3.25-1.75L126,33h-4v4l1.25-1.25c1,1.5,2.75,2.25,4.75,2.25c3.25,0,6-2.75,6-6H132z"/>
</g>

<g id="icon-list">
	<rect x="149" y="27" width="10" height="1"/>
	<rect x="149" y="30" width="10" height="1"/>
	<rect x="149" y="33" width="10" height="1"/>
	<rect x="149" y="36" width="10" height="1"/>
	<rect x="145" y="26" width="2" height="2"/>
	<rect x="145" y="29" width="2" height="2"/>
	<rect x="145" y="32" width="2" height="2"/>
	<rect x="145" y="35" width="2" height="2"/>
</g>

<g id="icon-grid">
	<rect x="168" y="27" width="16" height="1"/>
	<rect x="168" y="30" width="16" height="1"/>
	<rect x="168" y="33" width="16" height="1"/>
	<rect x="168" y="36" width="16" height="1"/>
	<rect x="168" y="27" width="1" height="10"/>
	<rect x="171" y="27" width="1" height="10"/>
	<rect x="174" y="27" width="1" height="10"/>
	<rect x="177" y="27" width="1" height="10"/>
	<rect x="180" y="27" width="1" height="10"/>
	<rect x="183" y="27" width="1" height="10"/>
</g>

<g id="icon-image">
	<path d="M192,38V26h16v12H192z M207,27h-14v10h14V27z"/>
	<polygon points="194,36 197,33 198,34 202,30 206,34 206,36"/>
	<circle cx="196" cy="30" r="2"/>
</g>

<g id="icon-user">
	<path d="M227,37v2h2v-2c0-3-0.5-4-5-4s-5,1-5,4v2h2v-2l1,1v1h4v-1L227,37z"/>
	<path d="M221,30v-2c0-3,3-3,3-3s3,0,3,3v2c0,3-3,3-3,3S221,33,221,30z M223,28h-1v1h1V28z M226,28h-1v1h1V28z"/>
</g>

<g id="icon-target">
	<path d="M241,32c0-4,3-7,7-7s7,3,7,7c0,4-3,7-7,7S241,36,241,32z M248,37c2.752,0,5-2.25,5-5c0-2.75-2.25-5-5-5s-5,2.25-5,5C243,34.75,245.25,37,248,37z"/>
	<rect x="247" y="24" width="2" height="5"/>
	<rect x="247" y="35" width="2" height="5"/>
	<rect x="240" y="31" width="5" height="2"/>
	<rect x="251" y="31" width="5" height="2"/>
</g>

<g id="icon-comment">
	<polygon points="279,27 265,27 265,36 273,36 277,40 277,36 279,36"/>
</g>

<g id="icon-trash">
	<path d="M301,26h-3c0-1-1-2-2-2s-2,1-2,2h-3c-1,0-1,2-1,2h12C302,28,302,26,301,26z M296,25c0.5,0,1,0.5,1,1h-2C295,25.5,295.5,25,296,25z"/>
	<polygon points="300,28 300,38 299,38 299,28 298,28 298,38 297,38 297,28 296,28 296,38 295,38 295,28 294,28 294,38 293,38 293,28 291,28 291,39 301,39 301,28"/>
</g>

<g id="icon-favourite">
	<path d="M322.5,26c2.5-0.5,5,2,3.5,5.5c-2,4.5-6,6.5-6,6.5s-4-2-6-6.5c-1.5-3.5,1-6,3.5-5.5c2,0.5,2.5,2,2.5,2S320.5,26.5,322.5,26z"/>
</g>

<g id="icon-folder">
	<path d="M349,29v-3h-1v-1h-3l-1,1h-8v12h13.5l2.5-9H349z M337,27h11v2h-9l-2,7V27z M348.5,37H338l2-7h10.5L348.5,37z"/>
</g>

<g id="icon-file">
	<path d="M373,28v11h-10V25h7L373,28z M370,26h-6v12h8V28L370,26z"/>
	<polygon points="370,28 370,26 369,26 369,29 372,29 372,28"/>
	<rect x="365" y="36" width="6" height="1"/>
	<rect x="365" y="34" width="6" height="1"/>
	<rect x="365" y="32" width="6" height="1"/>
	<rect x="365" y="30" width="6" height="1"/>
</g>

<g id="icon-attach">
	<path fill="none" stroke="#333333" stroke-miterlimit="10" d="M1.5,54.5c0,0,6.25,6.25,7.5,7.5c1,1,3,1.5,4.5,0 c1.5-1.5,1-3.5,0-4.5l-8-7.5C4.5,49,3,48.5,2,49.5S1.5,52,2.5,53l7.5,7.5c0.5,0.5,1.5,0.5,2,0s0.5-1.5,0-2l-7.5-7"/>
</g>

<g id="icon-download">
	<polygon points="34,58 37,58 37,50 27,50 27,58 30,58 30,60 25,60 25,48 39,48 39,60 34,60"/>
	<polygon points="32,64 35,61 33,61 33,54 31,54 31,61 29,61"/>
</g>

<g id="icon-upload">
	<polygon points="58,58 61,58 61,50 51,50 51,58 54,58 54,60 49,60 49,48 63,48 63,60 58,60"/>
	<polygon points="56,54 53,57 55,57 55,64 57,64 57,57 59,57"/>
</g>

<!-- icon: locked (x0,y88) -->

<!-- icon: unlocked (x44,y88) -->

</svg>
