<?xml version="1.0" encoding="utf-8"?>
<!DOCTYPE svg PUBLIC "-//W3C//DTD SVG 1.1//EN" "http://www.w3.org/Graphics/SVG/1.1/DTD/svg11.dtd" [
	<!ENTITY ns_flows "http://ns.adobe.com/Flows/1.0/">
]>
<svg version="1.1"
	 xmlns="http://www.w3.org/2000/svg" xmlns:xlink="http://www.w3.org/1999/xlink" xmlns:a="http://ns.adobe.com/AdobeSVGViewerExtensions/3.0/"
	 x="0px" y="0px" width="704px" height="88px" viewBox="0 0 704 88" enable-background="new 0 0 704 88" xml:space="preserve">

<!-- icon: write (x0y0) -->
<polygon fill="#333333" points="33,7 37,11 33,15 29,11"/>
<polygon fill="#333333" points="14,34 8,36 10,30 27,13 31,17"/>

<!-- icon: code (x44y0) -->
<polygon fill="#333333" points="63,13 60,10 48,22 60,34 63,31 54,22"/>
<polygon fill="#333333" points="70,31 73,34 85,22 73,10 70,13 79,22"/>

<!-- icon: view (x88y0) -->
<path fill="#333333" d="M94,22c0-2,7-10,16-10s16,8,16,10s-7,10-16,10S94,24,94,22z M110,15c-4,0-7,3-7,7s3,7,7,7s7-3,7-7S114,15,110,15z"/>
<circle fill="#333333" cx="110" cy="22" r="3"/>

<!-- icon: mail (x132,y0) -->
<path fill="#333333" d="M138,34V10h32v24H138z M154,25c-2,0-3-1-3-1l-8,8h22l-8-8C157,24,156,25,154,25zM140,31l9-9l-9-9V31z M168,31V13l-9,9L168,31z M157,20l8-8h-22l8,8c0,0,2,2,3,2S157,20,157,20z"/>

<!-- icon: plus (x176,y0) -->
<path fill="#333333" d="M210,22c0,6-5,12-12,12s-12-5-12-12s5-12,12-12S210,15,210,22z M206,20h-6v-6h-4v6h-6v4h6v6h4v-6h6V20z"/>

<!-- icon: minus (x220,y0) -->
<path fill="#333333" d="M254,22c0,6-5,12-12,12s-12-5-12-12s5-12,12-12S254,15,254,22z M250,20h-16v4h16V20z"/>

<!-- icon: delete (x264,y0) -->
<path fill="#333333" d="M298,22c0,6-5,12-12,12s-12-5-12-12s5-12,12-12S298,15,298,22z M293,18l-3-3l-4,4l-4-4l-3,3l4,4l-4,4l3,3l4-4l4,4l3-3l-4-4L293,18z"/>

<!-- icon: ban (x308,y0) -->
<path fill="#333333" d="M318,22c0-6,5-12,12-12s12,5,12,12s-5,12-12,12S318,28,318,22z M330,31c5,0,9-4,9-9s-4-9-9-9s-9,4-9,9S325,31,330,31z"/>
<polygon fill="#333333" points="335,14 338,17 325,30 322,27"/>

<!-- icon: warning (x352,y0) -->
<path fill="#333333" d="M376,9c0,0-1-2-2-2s-2,2-2,2l-13,24c0,0-0.5,1,0,2c0.5,1,2,1,2,1h26c0,0,1.5,0,2-1c0.527-1,0-2,0-2L376,9z M361,34l13-24l13,24H361z"/>
<polygon fill="#333333" points="375,26 373,26 372,16 376,16"/>
<circle fill="#333333" cx="374" cy="30" r="2"/>

<!-- icon: search (x396,y0) -->
<path fill="#333333" d="M419,25l2-2l5,3l6,6c0,0,0,2-1,3s-3,1-3,1l-6-6L419,25z"/>
<path fill="#333333" d="M404,18c0-5.5,4.478-10,10-10s10,4.5,10,10s-4.5,10-10,10S404,23.5,404,18z M414,25c4,0,7-3,7-7s-3-7-7-7s-7,3-7,7S410,25,414,25z"/>

<!-- icon: yes (x440,y0) -->
<polygon fill="#333333" points="472,11 456,27 451,22 448,25 456,33 475,14"/>

<!-- icon: no (x484,y0) -->
<polygon fill="#333333" points="517,14 514,11 506,19 498,11 495,14 503,22 495,30 498,33 506,25 514,33 517,30 509,22"/>

<!-- icon: time (x528,y0) -->
<path fill="#333333" d="M538,22c0-6,5-12,12-12s12,5,12,12s-5,12-12,12S538,28,538,22z M550,31c5,0,9-4,9-9s-4-9-9-9s-9,4-9,9S545,31,550,31z"/>
<polygon fill="#333333" points="549,22 549,15 552,15 552,23 547,28 545,26"/>

<!-- icon: cog (x572,y0) -->
<path fill="#333333" d="M606.75,20c0.25,1.5,0.25,2.75-0,4.25c-1.5-0.5-3,0.25-3.5,1.75c-0.5,1.5,0,3,1.25,3.75c-0.75,1-1.75,2-3,3c-0.75-1.25-2.25-2-3.75-1.25c-1.5,0.5-2,2-1.75,3.5c-1.5,0.25-2.75,0.25-4.25-0c0.5-1.5-0.25-3-1.75-3.5c-1.5-0.5-3,0-3.75,1.25c-1-0.75-2-1.75-3-3c1.25-0.75,2-2.25,1.25-3.75s-2-2-3.5-1.75c-0.25-1.5-0.25-2.75,0-4.25c1.5,0.5,3-0.25,3.5-1.75c0.5-1.5-0-3-1.25-3.75c0.75-1,1.75-2.138,3-3c0.75,1.25,2.25,2,3.75,1.25c1.5-0.5,2-2,1.75-3.5c1.5-0.25,2.75-0.25,4.25,0c-0.5,1.5,0.25,3,1.75,3.5c1.5,0.5,3-0,3.75-1.25c1,0.75,2,1.75,3,3c-1.25,0.75-2,2.25-1.25,3.75C603.75,19.5,605.25,20.25,606.75,20z M594,28c3.25,0,6-2.75,6-6s-2.75-6-6-6s-6,2.75-6,6S590.75,28,594,28z"/>

<!-- icon: repeat (x616,y0) -->
<path fill="#333333" d="M643.75,16.25C645,17.75,646,19.75,646,22c0,4.5-3.5,8-8,8s-8-3.5-8-8s3.5-8,8-8v-4c-6.5,0-12,5.5-12,12s5.5,12,12,12s12-5.5,12-12c0-3.25-1.25-6.25-3.5-8.5L643.5,16.25z"/>
<polygon fill="#333333" points="637,19 637,5 644,12"/>

<!-- icon: logout (x660,y0) -->
<path fill="#333333" d="M686,10.5v4.5c2.5,1.5,4,4,4,7c0,4.5-3.5,8-8,8s-8-3.5-8-8c0-3,1.5-5.5,4-7v-4.5c-4.5,1.5-8,6-8,11.5c0,6.5,5.5,12,12,12s12-5.5,12-12C694,16.5,690.5,12.5,686,10.5z"/>
<rect x="680" y="8" fill="#333333" width="4" height="8"/>

<!-- icon: arrow-n (x0,y44) -->
<polygon fill="#333333" points="22,54 12,64 18,64 18,78 26,78 26,64 32,64"/>

<!-- icon: arrow-e (x44,y44) -->
<polygon fill="#333333" points="78,66 68,56 68,62 54,62 54,70 68,70 68,76"/>

<!-- icon: arrow-s (x88,y44) -->
<polygon fill="#333333" points="110,78 120,68 114,68 114,54 106,54 106,68 100,68"/>

<!-- icon: arrow-w (x132,y44) -->
<polygon fill="#333333" points="142,66 152,76 152,70 166,70 166,62 152,62 152,56"/>

<!-- icon: star (x176,y44) -->
<polygon fill="#333333" points="197,52 200,62 211,62 202,68 206,78 197,71 188,78 192,68 183,62 194,62"/>

<!-- icon: refresh (x220,y44) -->
<path fill="#333333" d="M251.5,58.5C249.25,55.75,245.75,54,242,54c-6.5,0-12,5.5-12,12h4c0-4.5,3.5-8,8-8c2.75,0,5,1.25,6.5,3.5L251.5,58.5z"/>
<polygon fill="#333333" points="245,63 253,55 253,63"/>
<path fill="#333333" d="M232.5,73.5C234.75,76.25,238.25,78,242,78c6.5,0,12-5.5,12-12h-4c0,4.5-3.5,8-8,8c-2.75,0-5-1.25-6.5-3.5L232.5,73.5z"/>
<polygon fill="#333333" points="239,69 231,77 231,69"/>

<!-- icon: ul-list (x264,y44) -->

<!-- icon: ol-list (x308,y44) -->

<!-- icon: image (x352,y44) -->
<path fill="#333333" d="M358,78V54h32v24H358z M388,56h-28v20h28V56z"/>
<circle fill="#333333" cx="365" cy="61" r="3"/>
<polygon fill="#333333" points="362,74 367,69 369,71 378,62 386,70 386,74"/>

<!-- icon: user (x396,y44) -->

<!-- icon: target (x440,y44) -->

<!-- icon: comment (x484,y44) -->
<polygon fill="#333333" points="518,56 494,56 494,74 508,74 514,80 514,74 518,74"/>

<!-- icon: trash (x528,y44) -->

<!-- icon: favourite (x572,y44) -->
<path fill="#333333" d="M599,54c5-1,10,4.5,7,11c-4,9-12,13-12,13s-8-4-12-13c-3-6.5,2-12,7-11c4,1,5,4,5,4 S595,55,599,54z"/>

<!-- icon: folder (x616,y44) -->

<!-- icon: file (x660,y44) -->

<!-- icon: locked (x0,y88) -->

<!-- icon: unlocked (x44,y88) -->

</svg>
