<?xml version="1.0" encoding="utf-8"?>
<!DOCTYPE svg>
<svg version="1.1" baseProfile="full" xmlns="http://www.w3.org/2000/svg" xmlns:xlink="http://www.w3.org/1999/xlink"
    x="0px" y="0px" width="148px" height="30px" viewBox="0 0 148 30" enable-background="new 0 0 148 30" xml:space="preserve">
<path d="M44.935,12.688h-2.774v7.144h-2.29v-7.144h-2.774v-1.712h7.838V12.688z"/>
<path d="M54.198,19.832h-6.424v-8.856h6.424v1.712h-4.146v1.528h3.847v1.714h-3.847v2.189h4.146V19.832z"/>
<path d="M65.86,19.832h-2.652l-1.911-2.906l-1.951,2.906h-2.53l3.149-4.461l-3.083-4.396h2.644l1.848,2.758l1.899-2.758h2.538
	l-3.1,4.304L65.86,19.832z"/>
<path d="M76.021,12.688h-2.771v7.144h-2.292v-7.144h-2.774v-1.712h7.836V12.688z"/>
<path d="M86.194,13.772c0,0.396-0.07,0.783-0.209,1.162c-0.139,0.381-0.338,0.698-0.598,0.954c-0.353,0.35-0.747,0.615-1.185,0.793
	c-0.433,0.177-0.976,0.267-1.623,0.267h-1.429v2.885h-2.29v-8.856h3.772c0.564,0,1.041,0.049,1.429,0.146
	c0.387,0.098,0.73,0.244,1.027,0.438c0.356,0.234,0.632,0.533,0.821,0.898C86.099,12.821,86.194,13.258,86.194,13.772z
	 M83.825,13.822c0-0.25-0.066-0.464-0.203-0.645c-0.135-0.179-0.291-0.306-0.473-0.377c-0.234-0.095-0.469-0.147-0.694-0.157
	c-0.229-0.01-0.529-0.015-0.91-0.015h-0.394v2.648h0.659c0.391,0,0.709-0.023,0.96-0.072c0.254-0.047,0.467-0.143,0.639-0.284
	c0.146-0.129,0.252-0.277,0.318-0.455C83.794,14.289,83.825,14.076,83.825,13.822z"/>
<path d="M96.882,19.832h-2.368l-0.618-1.791H90.61l-0.618,1.791h-2.309l3.28-8.856h2.635L96.882,19.832z M93.347,16.419
	l-1.093-3.175l-1.093,3.175H93.347z"/>
<path d="M105.762,12.688h-2.773v7.144h-2.291v-7.144h-2.773v-1.712h7.838V12.688z"/>
<path d="M115.996,12.688h-2.773v7.144h-2.289v-7.144h-2.775v-1.712h7.838V12.688z"/>
<path d="M125.259,19.832h-6.421v-8.856h6.421v1.712h-4.144v1.528h3.847v1.714h-3.847v2.189h4.144V19.832z"/>
<path d="M137.264,19.832h-2.797l-2.418-3.247h-1.06v3.247h-2.279v-8.856h3.841c0.526,0,0.978,0.03,1.354,0.09
	c0.378,0.059,0.731,0.188,1.062,0.386c0.336,0.199,0.599,0.454,0.796,0.77c0.197,0.315,0.295,0.711,0.295,1.187
	c0,0.654-0.152,1.188-0.457,1.6c-0.302,0.413-0.737,0.757-1.304,1.03L137.264,19.832z M133.69,13.688
	c0-0.222-0.047-0.412-0.137-0.571c-0.09-0.159-0.25-0.283-0.471-0.375c-0.158-0.063-0.337-0.101-0.544-0.115
	c-0.205-0.015-0.447-0.021-0.723-0.021h-0.827v2.385h0.702c0.367,0,0.672-0.017,0.92-0.054c0.245-0.034,0.452-0.117,0.62-0.244
	c0.158-0.122,0.275-0.258,0.348-0.407C133.653,14.138,133.69,13.937,133.69,13.688z"/>
<path d="M147.99,19.832h-2.205l-3.769-6.078v6.078h-2.103v-8.856h2.738l3.24,5.074v-5.074h2.098V19.832z"/>
<path d="M28.655,28.658c-1.042,1.042-2.125,1.531-2.552,1.107c-0.158-0.159,0,0,0,0c-0.075-0.075-2.793-3.076-5.882-6.166l0,0
	c-2.798-2.797-6.076-5.635-8.099-7.654c-2.02-2.02-5.378-5.793-5.381-5.796l0,0L6.517,9.896l1.627-1.771L9.893,6.52l0.252,0.226
	c0.003,0.002,3.774,3.362,5.793,5.38c2.022,2.022,4.859,5.303,7.657,8.1l0,0c3.088,3.089,6.052,5.77,6.188,5.907
	C30.148,26.497,29.752,27.562,28.655,28.658z"/>
<linearGradient id="SVGID_13_" gradientUnits="userSpaceOnUse" x1="16.7495" y1="20.0439" x2="20.0389" y2="16.7546">
	<stop  offset="0.1484" style="stop-color:#7B6C35"/>
	<stop  offset="0.8352" style="stop-color:#B9AA69"/>
</linearGradient>
<path fill-rule="evenodd" clip-rule="evenodd" fill="url(#SVGID_13_)" d="M15.674,12.39c-2.003-2.004-5.776-5.366-5.776-5.366
	L8.398,8.401L7.021,9.9c0,0,3.362,3.774,5.366,5.781c2.004,2.003,5.288,4.845,8.099,7.654c3.09,3.09,5.832,6.115,5.881,6.164
	c0.049,0.047,0.626,0.291,2.023-1.104c1.396-1.396,1.151-1.979,1.118-2.011c-0.032-0.033-3.086-2.803-6.177-5.896
	C20.521,17.681,17.679,14.396,15.674,12.39z"/>
<linearGradient id="SVGID_15_" gradientUnits="userSpaceOnUse" x1="16.7461" y1="20.041" x2="19.9806" y2="16.8066">
	<stop  offset="0.0934" style="stop-color:#2B2414"/>
	<stop  offset="0.7363" style="stop-color:#624E22"/>
</linearGradient>
<path fill-rule="evenodd" clip-rule="evenodd" fill="url(#SVGID_15_)" d="M28.103,28.67c-0.095-0.012-0.199-0.09-0.325-0.217
	c-0.142-0.142-3.016-3.061-6.105-6.152c-1.148-1.147-3.416-3.24-3.734-3.518c-0.555-0.49-0.504-0.984-0.211-1.467
	c0.299-0.491,1.025-1.093,1.513-1.138c-0.473-0.509-0.933-1.01-1.375-1.487c-1.349,0.75-2.898,1.65-3.126,1.422
	c-1.08-1.079-3.81-3.808-4.966-4.962c-0.508-0.507-0.438-1.051-0.152-1.586c0.314-0.587,1.116-1.229,1.591-1.357l0,0
	c-0.777-0.704-1.315-1.184-1.315-1.184L8.398,8.401L7.021,9.9c0,0,3.362,3.774,5.366,5.781c2.004,2.003,5.288,4.845,8.099,7.654
	c3.09,3.09,5.832,6.115,5.881,6.164C26.412,29.543,26.915,29.756,28.103,28.67z"/>
<path fill-rule="evenodd" clip-rule="evenodd" fill="#6B5600" d="M22.637,20.995c0,0-0.388-0.465-0.853-0.929
	c-0.464-0.468-0.975-0.943-0.975-0.943s0.565,0.643,0.868,0.945C21.979,20.371,22.637,20.995,22.637,20.995z M15.583,13.658
	c-0.441-0.442-1.163-1.162-1.163-1.162s0.666,0.853,1.069,1.255C15.893,14.155,16.025,14.099,15.583,13.658z M14.584,15.402
	c-0.711-0.71-1.859-1.798-3.713-3.651c-1.436-1.435-2.582-2.507-2.941-2.839l-0.083,0.09c0.497,0.478,2.636,2.531,3.811,3.703
	c1.334,1.335,3.601,3.456,4.204,3.949c0.604,0.491,1.766,1.501,2.651,2.387c0.884,0.886,1.814,1.707,1.814,1.707
	s-1.513-1.558-2.18-2.227C17.478,17.854,15.404,16.227,14.584,15.402z M14.14,12.266c0,0-0.929-0.93-2.332-2.332
	c-1.072-1.073-2.144-2.143-2.432-2.431L9.372,7.507c0.285,0.32,1.378,1.539,2.359,2.52C12.87,11.167,14.14,12.266,14.14,12.266z
	 M11.286,10.585c0.186,0.185,0.692,0.681,1.064,1.054c0.372,0.371,1.151,1.217,1.344,1.411c0.773,0.772,1.306,1.254,2.22,2.168
	c0.914,0.914,3.161,3.25,3.61,3.701c0.76,0.76,1.804,1.853,2.339,2.388c0.534,0.534,1.743,1.694,2.354,2.305
	c0.613,0.611,1.425,1.399,1.968,1.94c0.542,0.542,2.01,1.786,2.01,1.786s-2.335-2.3-3.173-3.139
	c-0.836-0.838-1.897-1.776-2.417-2.293c-0.723-0.726-1.913-2.001-2.525-2.612c-0.611-0.615-0.798-0.722-0.929-0.854
	s-1.409-1.472-1.751-1.812c-0.34-0.34-3.323-3.372-3.873-3.923c-0.55-0.548-1.13-1.114-1.363-1.346
	c-0.233-0.233-0.635-0.712-0.883-0.961c-0.249-0.247-0.667-0.62-0.96-0.914c-0.28-0.279-1.035-1.007-1.501-1.471L8.659,8.161
	c0.797,0.783,1.296,1.112,1.601,1.417C10.577,9.895,11.1,10.398,11.286,10.585z M13.104,13.723c0.569,0.567,2.944,2.711,2.944,2.711
	s-1.625-1.551-2.446-2.372c-0.822-0.821-1.833-1.876-2.816-2.86c-0.82-0.821-2.155-2.171-2.576-2.597L8.087,8.739
	c0.553,0.525,2.369,2.249,2.896,2.779C11.609,12.143,12.535,13.153,13.104,13.723z M25.146,24.84
	c-0.587-0.589-1.169-1.106-1.688-1.623c-0.519-0.519-2.014-2.078-2.014-2.078s1.526,1.744,2.092,2.306
	c0.566,0.566,0.968,0.844,1.641,1.518c0.675,0.674,1.694,1.735,2.096,2.137c0.325,0.325,1.041,0.896,1.305,1.099
	c0.023-0.023,0.049-0.05,0.071-0.073c-0.335-0.295-1.394-1.222-1.861-1.688C26.232,25.876,25.735,25.428,25.146,24.84z
	 M27.177,25.428c-0.365-0.366-1.395-1.397-1.611-1.613c-0.217-0.219-0.996-0.825-0.996-0.825s0.539,0.587,0.687,0.734
	c0.146,0.146,0.967,0.828,1.579,1.44c0.527,0.523,1.929,1.95,2.314,2.345c0.052-0.075,0.096-0.144,0.135-0.209
	C28.887,26.957,27.488,25.74,27.177,25.428z M12.506,12.298c-0.643-0.658-1.419-1.525-1.696-1.799
	c-0.634-0.636-1.887-1.722-2.337-2.167l-0.074,0.07L8.386,8.412c0.459,0.444,1.833,1.739,2.694,2.6
	C11.638,11.569,12.506,12.298,12.506,12.298z M11.983,12.046c0.698,0.696,5.829,5.721,6.487,6.381
	c0.657,0.657,1.41,1.471,1.797,1.857c0.387,0.387,1.456,1.486,1.456,1.486s-1.441-1.628-2.277-2.464
	c-0.837-0.837-2.885-2.951-3.83-3.896C14.924,14.713,11.983,12.046,11.983,12.046z M12.854,12.868"/>
<linearGradient id="SVGID_18_" gradientUnits="userSpaceOnUse" x1="19.3262" y1="17.4521" x2="17.065" y2="19.7134">
	<stop  offset="0.5165" style="stop-color:#2D2400"/>
	<stop  offset="0.8626" style="stop-color:#211700"/>
</linearGradient>
<path fill-rule="evenodd" clip-rule="evenodd" fill="url(#SVGID_18_)" d="M20.312,22.444c-0.951-0.951-2.792-2.692-3.591-3.49
	c-0.133-0.132-1.75-1.714-2.089-2.057c-0.34-0.341-3.32-3.044-3.87-3.592c-0.55-0.552-1.168-1.301-1.402-1.533
	c-0.232-0.232-0.673-0.75-0.921-0.999c-0.247-0.246-0.628-0.656-0.922-0.95C7.415,9.721,7.34,9.666,7.296,9.647L7.261,9.678
	c0.021,0.045,0.081,0.124,0.193,0.238c0.318,0.317,0.727,0.821,0.914,1.007s0.806,0.794,1.178,1.165
	c0.371,0.373,1.075,1.18,1.269,1.375c0.773,0.772,1.381,1.177,2.294,2.095c0.916,0.912,3.091,3.092,3.54,3.542
	c0.76,0.76,1.876,1.711,2.411,2.246c0.535,0.537,1.743,1.807,2.355,2.417c0.612,0.614,1.421,1.45,1.964,1.997
	c0.542,0.538,2.014,1.916,2.014,1.916c-2.248-2.287-2.177-2.356-2.96-3.138C21.597,23.702,20.832,22.965,20.312,22.444z
	 M25.29,26.443c-0.764-0.768-1.338-1.378-2.147-2.183c-0.809-0.805-1.719-1.661-2.434-2.37c-0.713-0.71-2.77-2.688-2.77-2.688
	s2.029,2.128,2.807,2.897c0.777,0.777,1.4,1.407,2.327,2.332c0.928,0.917,2.329,2.372,2.882,2.92c0.467,0.464,1.77,1.639,1.77,1.639
	l0.206-0.167C27.931,28.823,26.435,27.585,25.29,26.443z M9.878,11.918c0.667,0.712,4.873,4.591,5.478,5.243
	c0.606,0.647,3.321,3.177,3.321,3.177s-1.833-1.826-2.708-2.762c-0.875-0.936-4.208-3.852-5.253-4.972
	C9.669,11.482,7.83,9.657,7.83,9.657L7.666,9.787C7.666,9.787,9.213,11.206,9.878,11.918z M26.612,28.856
	c-0.508-0.535-1.016-0.954-1.016-0.954s0.597,0.775,0.882,1.027c0.188,0.171,0.4,0.384,0.523,0.51
	c0.049-0.021,0.103-0.046,0.16-0.075C27.05,29.283,26.874,29.134,26.612,28.856z M15.597,16.002
	c-0.006,0.004-0.011,0.006-0.017,0.008c0.278,0.254,0.468,0.425,0.468,0.425S15.867,16.262,15.597,16.002z M17.527,18.103
	c-0.009-0.051-0.01-0.103-0.01-0.152c-0.629-0.545-1.494-1.257-2.18-1.854c-0.028,0.008-0.056,0.016-0.084,0.023
	c0.263,0.239,0.477,0.427,0.607,0.534C16.256,16.975,16.888,17.52,17.527,18.103z M17.643,17.474
	c-0.57-0.59-1.158-1.185-1.619-1.654c-0.048,0.021-0.092,0.041-0.139,0.062c0.642,0.628,1.248,1.223,1.719,1.687
	C17.615,17.539,17.628,17.504,17.643,17.474z M10.487,8.614c-0.526-0.527-0.946-0.947-1.11-1.11L9.372,7.507
	c0.157,0.176,0.56,0.626,1.051,1.156C10.446,8.646,10.466,8.63,10.487,8.614z M17.872,17.112c-0.201-0.209-0.374-0.388-0.471-0.483
	c-0.11-0.109-0.494-0.503-0.984-0.997c-0.021,0.012-0.042,0.021-0.063,0.034c0.425,0.431,0.959,0.978,1.473,1.509
	C17.841,17.153,17.855,17.132,17.872,17.112z M9.481,9.89c-0.53-0.535-1.022-1.032-1.256-1.269c-0.04,0.05-0.077,0.097-0.113,0.144
	c0.269,0.254,0.791,0.749,1.327,1.262C9.453,9.982,9.465,9.936,9.481,9.89z M9.944,9.114c-0.345-0.337-0.802-0.78-1.124-1.1
	L8.663,8.158L8.659,8.161c0.514,0.504,0.903,0.82,1.196,1.062C9.885,9.187,9.912,9.15,9.944,9.114z M9.403,10.309
	C8.72,9.65,8.212,9.174,7.97,8.95c-0.028,0.037-0.053,0.07-0.075,0.099C8.163,9.305,8.75,9.868,9.42,10.517
	C9.408,10.449,9.402,10.379,9.403,10.309z M9.621,9.566C9.642,9.528,9.669,9.49,9.692,9.452C9.201,9.006,8.718,8.573,8.473,8.332
	L8.422,8.379C8.411,8.392,8.401,8.403,8.391,8.417c0.235,0.227,0.704,0.671,1.222,1.168C9.616,9.578,9.618,9.572,9.621,9.566z"/>
<path d="M9.625,0c0,0,0.784,0.555,2.033,1.806l0,0c1.25,1.249,1.806,2.033,1.806,2.033v0.697l-8.928,8.928H3.839l0,0
	c0,0-1.043-0.813-2.035-1.806l0,0C0.554,10.408,0,9.625,0,9.625V8.928L8.928,0H9.625z"/>
<linearGradient id="SVGID_21_" gradientUnits="userSpaceOnUse" x1="4.7285" y1="4.7285" x2="8.7343" y2="8.7343">
	<stop  offset="0" style="stop-color:#FFFFFF"/>
	<stop  offset="1" style="stop-color:#666666"/>
</linearGradient>
<path fill-rule="evenodd" clip-rule="evenodd" fill="url(#SVGID_21_)" d="M9.506,0.374H9.083L0.374,9.083v0.423
	c0,0,0.46,0.652,1.696,1.887c1.235,1.235,1.888,1.695,1.888,1.695h0.422l8.71-8.71V3.958c0,0-0.459-0.653-1.695-1.888
	C10.158,0.834,9.506,0.374,9.506,0.374z"/>
<linearGradient id="SVGID_23_" gradientUnits="userSpaceOnUse" x1="4.7285" y1="4.7285" x2="8.7343" y2="8.7343">
	<stop  offset="0" style="stop-color:#FFFFFF"/>
	<stop  offset="1" style="stop-color:#666666"/>
</linearGradient>
<path fill-rule="evenodd" clip-rule="evenodd" fill="url(#SVGID_23_)" d="M9.506,0.374H9.083L0.374,9.083v0.423
	c0,0,0.46,0.652,1.696,1.887c1.235,1.235,1.888,1.695,1.888,1.695h0.422l8.71-8.71V3.958c0,0-0.459-0.653-1.695-1.888
	C10.158,0.834,9.506,0.374,9.506,0.374z"/>
<linearGradient id="SVGID_25_" gradientUnits="userSpaceOnUse" x1="2.2529" y1="11.2119" x2="11.175" y2="2.2899">
	<stop  offset="0.0769" style="stop-color:#0A0A0A"/>
	<stop  offset="0.533" style="stop-color:#0F0F0F"/>
	<stop  offset="0.9121" style="stop-color:#1A1A1A"/>
</linearGradient>
<path fill-rule="evenodd" clip-rule="evenodd" fill="url(#SVGID_25_)" d="M12.77,4.267c0,0-2.446,2.605-4.173,4.331
	c-1.725,1.726-4.33,4.17-4.33,4.17s-0.955-0.497-2.014-1.557c-1.06-1.059-1.559-2.014-1.559-2.014s2.447-2.604,4.173-4.331
	c1.726-1.726,4.331-4.172,4.331-4.172s0.918,0.535,1.978,1.595C12.234,3.349,12.77,4.267,12.77,4.267z"/>
<linearGradient id="SVGID_27_" gradientUnits="userSpaceOnUse" x1="0.272" y1="9.1851" x2="4.2778" y2="13.1908">
	<stop  offset="0" style="stop-color:#999999"/>
	<stop  offset="1" style="stop-color:#1A1A1A"/>
</linearGradient>
<path fill-rule="evenodd" clip-rule="evenodd" fill="url(#SVGID_27_)" d="M4.267,12.768c0,0-0.955-0.497-2.014-1.557
	c-1.06-1.059-1.559-2.014-1.559-2.014l-0.32-0.114v0.423c0,0,0.46,0.652,1.696,1.887c1.235,1.235,1.888,1.695,1.888,1.695h0.422
	L4.267,12.768z"/>
<linearGradient id="SVGID_29_" gradientUnits="userSpaceOnUse" x1="9.186" y1="0.272" x2="13.1911" y2="4.2771">
	<stop  offset="0" style="stop-color:#CCCCCC"/>
	<stop  offset="1" style="stop-color:#333333"/>
</linearGradient>
<path fill-rule="evenodd" clip-rule="evenodd" fill="url(#SVGID_29_)" d="M13.089,4.378V3.958c0,0-0.459-0.653-1.695-1.888
	c-1.236-1.235-1.888-1.696-1.888-1.696H9.083l0.114,0.321c0,0,0.918,0.535,1.978,1.595c1.06,1.06,1.595,1.978,1.595,1.978
	L13.089,4.378z"/>
<path fill="#494949" d="M6.258,7.047L6.158,7.148L6.075,7.067l0.29-0.289l0.082,0.081L6.345,6.961l0.529,0.527L6.787,7.575
	L6.258,7.047z"/>
<path fill="#494949" d="M6.792,6.931L6.386,6.754l0.093-0.091l0.247,0.116L6.612,6.529l0.093-0.092l0.175,0.406l0.444,0.193
	L7.231,7.13L6.949,7l0.13,0.282L6.986,7.373L6.792,6.931z"/>
<path fill="#494949" d="M6.752,6.389l0.133-0.131c0.047-0.048,0.093-0.072,0.155-0.07c0.061,0.001,0.109,0.031,0.183,0.104
	c0.053,0.052,0.084,0.094,0.097,0.147c0.016,0.062,0,0.125-0.063,0.189L7.213,6.673L7.45,6.911L7.363,6.997L6.752,6.389z M7.13,6.59
	l0.042-0.042c0.071-0.071,0.029-0.114-0.031-0.175C7.083,6.315,7.036,6.27,6.969,6.338L6.922,6.384L7.13,6.59z"/>
<path fill="#191919" d="M6.258,6.974L6.158,7.074L6.075,6.992l0.29-0.29l0.082,0.083L6.345,6.887l0.529,0.526L6.787,7.5L6.258,6.974
	z"/>
<path fill="#191919" d="M6.792,6.857L6.386,6.68l0.093-0.092l0.247,0.115L6.612,6.455l0.093-0.093l0.175,0.407l0.444,0.194
	L7.231,7.055L6.949,6.926l0.13,0.28L6.986,7.299L6.792,6.857z"/>
<path fill="#191919" d="M6.752,6.313l0.133-0.131c0.047-0.047,0.093-0.071,0.155-0.07c0.061,0.002,0.109,0.031,0.183,0.104
	C7.276,6.27,7.307,6.309,7.319,6.363c0.016,0.063,0,0.126-0.063,0.19L7.213,6.598L7.45,6.836L7.363,6.923L6.752,6.313z M7.13,6.515
	l0.042-0.042c0.071-0.071,0.029-0.114-0.031-0.174C7.083,6.242,7.036,6.195,6.969,6.263L6.922,6.308L7.13,6.515z"/>
<path fill="#2D2D2D" d="M6.258,7.01L6.158,7.111L6.075,7.028l0.29-0.289l0.082,0.083L6.345,6.923l0.529,0.528L6.787,7.537
	L6.258,7.01z"/>
<path fill="#2D2D2D" d="M6.792,6.894L6.386,6.717l0.093-0.092l0.247,0.114L6.612,6.492l0.093-0.093l0.175,0.408L7.323,7L7.231,7.092
	L6.949,6.964l0.13,0.28L6.986,7.337L6.792,6.894z"/>
<path fill="#2D2D2D" d="M6.752,6.351L6.885,6.22c0.047-0.047,0.093-0.071,0.155-0.07C7.101,6.151,7.149,6.18,7.223,6.253
	C7.276,6.307,7.307,6.347,7.319,6.4c0.016,0.064,0,0.126-0.063,0.19L7.213,6.635L7.45,6.874L7.363,6.961L6.752,6.351z M7.13,6.553
	l0.042-0.042c0.071-0.07,0.029-0.114-0.031-0.174C7.083,6.279,7.036,6.232,6.969,6.3L6.922,6.346L7.13,6.553z"/>
<path d="M2.974,28.358L2.974,28.358C2.147,27.53,1.5,26.505,1.5,26.505l0.806-0.81c0,0,0.845-0.23,1.355-0.741l0,0L20.29,8.325
	c1.059-1.06,2.165-3.391,2.165-3.391l2.923-2.925l0.762-0.515l3.78,3.781l-0.517,0.762l-2.922,2.922c0,0-2.331,1.107-3.39,2.165l0,0
	L6.462,27.755C5.95,28.27,5.718,29.11,5.718,29.11L4.91,29.921C4.91,29.921,3.798,29.184,2.974,28.358z"/>
<linearGradient id="SVGID_41_" gradientUnits="userSpaceOnUse" x1="20.5015" y1="6.6074" x2="29.1162" y2="6.6074">
	<stop  offset="0.125" style="stop-color:#CDCDCB"/>
	<stop  offset="0.875" style="stop-color:#A09EA1"/>
</linearGradient>
<path fill-rule="evenodd" clip-rule="evenodd" fill="url(#SVGID_41_)" d="M25.62,2.3L25.62,2.3l-2.817,2.817
	c0,0-0.666,2.91-1.737,3.982l-0.563,0.565l1.25,1.25l0.564-0.565c1.072-1.072,3.981-1.736,3.981-1.736l2.819-2.816v0L25.62,2.3z"/>
<path fill-rule="evenodd" clip-rule="evenodd" fill="#616161" d="M21.752,10.915l0.51,0.511l0.564-0.565
	c1.071-1.073,3.471-2.247,3.471-2.247s-2.91,0.664-3.981,1.736L21.752,10.915z"/>
<path fill-rule="evenodd" clip-rule="evenodd" fill="#EBE9E9" d="M19.991,9.153l0.51,0.511l0.563-0.565
	c1.072-1.072,1.737-3.982,1.737-3.982s-1.175,2.399-2.247,3.472L19.991,9.153z"/>
<path fill-rule="evenodd" clip-rule="evenodd" fill="#FFCC33" d="M20.538,9.626L4.436,25.73c-0.612,0.611-1.326,0.918-1.327,0.918
	l1.658,1.661l0,0c0,0,0.307-0.719,0.919-1.329l16.102-16.104L20.538,9.626z"/>
<path fill-rule="evenodd" clip-rule="evenodd" fill="#BFBFBF" d="M1.986,26.548c0,0,0.687,0.98,1.252,1.545
	c0.564,0.565,1.632,1.339,1.632,1.339L1.986,26.548z"/>
<polygon fill-rule="evenodd" clip-rule="evenodd" fill="#EBE9E9" points="29.116,5.797 29.438,5.322 26.094,1.979 25.62,2.3 "/>
<path fill="#BA9C0A" d="M5.782,25.361l-0.076,0.076l-0.063-0.061l0.219-0.221l0.062,0.062l-0.077,0.076l0.401,0.399l-0.067,0.068
	L5.782,25.361z"/>
<path fill="#BA9C0A" d="M5.931,25.088l0.197-0.199l0.062,0.063l-0.13,0.132l0.135,0.134l0.114-0.112l0.062,0.061L6.258,25.28
	l0.135,0.138l0.132-0.134l0.066,0.066L6.393,25.55L5.931,25.088z"/>
<path fill="#BA9C0A" d="M6.492,24.968l-0.307-0.136l0.07-0.069l0.188,0.087l-0.088-0.187l0.071-0.07L6.558,24.9l0.338,0.147
	l-0.07,0.069l-0.213-0.097l0.099,0.211l-0.07,0.072L6.492,24.968z"/>
<path fill="#BA9C0A" d="M6.608,24.536L6.531,24.61L6.469,24.55l0.22-0.219l0.062,0.062l-0.076,0.076l0.4,0.398l-0.067,0.067
	L6.608,24.536z"/>
<path fill="#BA9C0A" d="M6.756,24.261l0.101-0.099c0.035-0.035,0.07-0.055,0.117-0.053c0.047,0,0.083,0.023,0.137,0.076
	c0.042,0.041,0.064,0.073,0.075,0.114c0.012,0.047,0,0.097-0.047,0.146l-0.035,0.031l0.181,0.183L7.22,24.724L6.756,24.261z
	 M7.042,24.416l0.032-0.031c0.053-0.054,0.022-0.087-0.023-0.134c-0.044-0.046-0.079-0.079-0.131-0.028l-0.035,0.034L7.042,24.416z"
	/>
<path fill="#BA9C0A" d="M7.109,23.906l0.056-0.055l0.566,0.361l-0.066,0.065l-0.119-0.079l-0.09,0.091l0.079,0.118l-0.066,0.066
	L7.109,23.906z M7.271,24.015H7.27l0.136,0.2l0.066-0.066L7.271,24.015z"/>
<path fill="#BA9C0A" d="M7.41,23.731L7.333,23.81l-0.062-0.061l0.22-0.223l0.062,0.063l-0.078,0.076l0.4,0.399L7.81,24.135
	L7.41,23.731z"/>
<path fill="#BA9C0A" d="M7.665,23.478l-0.076,0.077l-0.063-0.065l0.22-0.215l0.062,0.062l-0.077,0.077l0.4,0.401l-0.066,0.064
	L7.665,23.478z"/>
<path fill="#BA9C0A" d="M7.813,23.203l0.197-0.194l0.062,0.061l-0.131,0.132l0.136,0.135l0.114-0.111l0.062,0.061L8.14,23.399
	l0.136,0.136l0.132-0.132l0.065,0.066l-0.197,0.198L7.813,23.203z"/>
<path fill="#BA9C0A" d="M8.093,22.928L8.2,22.819c0.079-0.078,0.162-0.072,0.252,0.017c0.053,0.057,0.077,0.109,0.058,0.175
	l0.283,0.14l-0.07,0.072l-0.259-0.138l-0.039,0.04l0.197,0.195l-0.066,0.066L8.093,22.928z M8.365,23.065l0.039-0.035
	c0.045-0.047,0.027-0.081-0.02-0.126c-0.046-0.047-0.08-0.066-0.129-0.016l-0.033,0.033L8.365,23.065z"/>
<path fill="#BA9C0A" d="M8.406,22.611l0.063-0.062l0.379,0.177H8.85l-0.279-0.279l0.066-0.067L9.1,22.844l-0.063,0.064l-0.379-0.181
	l-0.001,0.004l0.278,0.279l-0.067,0.064L8.406,22.611z"/>
<path fill="#ECD74C" d="M5.782,25.422l-0.076,0.077l-0.063-0.063l0.219-0.22l0.062,0.061l-0.077,0.076l0.401,0.403l-0.067,0.067
	L5.782,25.422z"/>
<path fill="#ECD74C" d="M5.931,25.148l0.197-0.198l0.062,0.064l-0.13,0.128l0.135,0.136l0.114-0.114l0.062,0.062l-0.114,0.115
	l0.135,0.136l0.132-0.132l0.066,0.069l-0.198,0.194L5.931,25.148z"/>
<path fill="#ECD74C" d="M6.492,25.028l-0.307-0.136l0.07-0.068l0.188,0.084l-0.088-0.185l0.071-0.07l0.132,0.309l0.338,0.146
	l-0.07,0.07L6.612,25.08l0.099,0.212l-0.07,0.071L6.492,25.028z"/>
<path fill="#ECD74C" d="M6.608,24.597l-0.077,0.076l-0.062-0.064l0.22-0.218l0.062,0.062L6.675,24.53l0.4,0.399l-0.067,0.069
	L6.608,24.597z"/>
<path fill="#ECD74C" d="M6.756,24.323l0.101-0.101c0.035-0.037,0.07-0.055,0.117-0.053c0.047,0,0.083,0.023,0.137,0.079
	c0.042,0.039,0.064,0.07,0.075,0.111c0.012,0.048,0,0.095-0.047,0.144l-0.035,0.034l0.181,0.182L7.22,24.786L6.756,24.323z
	 M7.042,24.475l0.032-0.029c0.053-0.055,0.022-0.089-0.023-0.134c-0.044-0.045-0.079-0.081-0.131-0.027l-0.035,0.035L7.042,24.475z"
	/>
<path fill="#ECD74C" d="M7.109,23.97l0.056-0.058l0.566,0.36l-0.066,0.068l-0.119-0.082l-0.09,0.09l0.079,0.12l-0.066,0.067
	L7.109,23.97z M7.271,24.073L7.27,24.075l0.136,0.199l0.066-0.065L7.271,24.073z"/>
<path fill="#ECD74C" d="M7.41,23.792l-0.077,0.077l-0.062-0.063l0.22-0.218l0.062,0.062l-0.078,0.077l0.4,0.399L7.81,24.195
	L7.41,23.792z"/>
<path fill="#ECD74C" d="M7.665,23.537l-0.076,0.078l-0.063-0.062l0.22-0.221l0.062,0.063l-0.077,0.076l0.4,0.399l-0.066,0.068
	L7.665,23.537z"/>
<path fill="#ECD74C" d="M7.813,23.269l0.197-0.201l0.062,0.063l-0.131,0.132l0.136,0.135l0.114-0.113l0.062,0.06L8.14,23.458
	l0.136,0.136l0.132-0.13l0.065,0.064l-0.197,0.199L7.813,23.269z"/>
<path fill="#ECD74C" d="M8.093,22.987L8.2,22.881c0.079-0.081,0.162-0.073,0.252,0.02c0.053,0.051,0.077,0.106,0.058,0.171
	l0.283,0.142l-0.07,0.069l-0.259-0.136l-0.039,0.039l0.197,0.195l-0.066,0.067L8.093,22.987z M8.365,23.127l0.039-0.038
	c0.045-0.045,0.027-0.078-0.02-0.126c-0.046-0.045-0.08-0.062-0.129-0.016l-0.033,0.036L8.365,23.127z"/>
<path fill="#ECD74C" d="M8.406,22.674l0.063-0.064l0.379,0.177H8.85l-0.279-0.277l0.066-0.068L9.1,22.904l-0.063,0.063l-0.379-0.18
	L8.657,22.79l0.278,0.279l-0.067,0.065L8.406,22.674z"/>
<path fill="#FCC332" d="M5.782,25.393l-0.076,0.074l-0.063-0.061l0.219-0.223l0.062,0.063l-0.077,0.076l0.401,0.401l-0.067,0.069
	L5.782,25.393z"/>
<path fill="#FCC332" d="M5.931,25.117l0.197-0.197l0.062,0.062l-0.13,0.132l0.135,0.136l0.114-0.114l0.062,0.061L6.258,25.31
	l0.135,0.138l0.132-0.132l0.066,0.067l-0.198,0.196L5.931,25.117z"/>
<path fill="#FCC332" d="M6.492,24.999l-0.307-0.136l0.07-0.071l0.188,0.089l-0.088-0.187l0.071-0.072l0.132,0.308l0.338,0.148
	l-0.07,0.07L6.612,25.05l0.099,0.215l-0.07,0.066L6.492,24.999z"/>
<path fill="#FCC332" d="M6.608,24.565l-0.077,0.077l-0.062-0.063l0.22-0.219l0.062,0.062L6.675,24.5l0.4,0.398l-0.067,0.067
	L6.608,24.565z"/>
<path fill="#FCC332" d="M6.756,24.292l0.101-0.099c0.035-0.037,0.07-0.055,0.117-0.053c0.047,0,0.083,0.023,0.137,0.076
	c0.042,0.042,0.064,0.071,0.075,0.114c0.012,0.048,0,0.095-0.047,0.144l-0.035,0.033l0.181,0.181L7.22,24.753L6.756,24.292z
	 M7.042,24.445l0.032-0.031c0.053-0.056,0.022-0.087-0.023-0.132c-0.044-0.047-0.079-0.081-0.131-0.029l-0.035,0.035L7.042,24.445z"
	/>
<path fill="#FCC332" d="M7.109,23.939l0.056-0.057l0.566,0.358L7.665,24.31l-0.119-0.081l-0.09,0.093l0.079,0.118l-0.066,0.066
	L7.109,23.939z M7.271,24.046H7.27l0.136,0.201l0.066-0.069L7.271,24.046z"/>
<path fill="#FCC332" d="M7.41,23.763L7.333,23.84l-0.062-0.062l0.22-0.222l0.062,0.064l-0.078,0.075l0.4,0.401L7.81,24.164
	L7.41,23.763z"/>
<path fill="#FCC332" d="M7.665,23.507l-0.076,0.079l-0.063-0.065l0.22-0.218l0.062,0.061L7.731,23.44l0.4,0.401l-0.066,0.064
	L7.665,23.507z"/>
<path fill="#FCC332" d="M7.813,23.236l0.197-0.198l0.062,0.062l-0.131,0.132l0.136,0.135l0.114-0.112l0.062,0.06L8.14,23.429
	l0.136,0.134l0.132-0.128l0.065,0.064l-0.197,0.199L7.813,23.236z"/>
<path fill="#FCC332" d="M8.093,22.955L8.2,22.852c0.079-0.083,0.162-0.073,0.252,0.018c0.053,0.053,0.077,0.106,0.058,0.173
	l0.283,0.138l-0.07,0.073l-0.259-0.14l-0.039,0.041l0.197,0.197l-0.066,0.065L8.093,22.955z M8.365,23.095l0.039-0.037
	c0.045-0.045,0.027-0.076-0.02-0.124c-0.046-0.045-0.08-0.062-0.129-0.016l-0.033,0.035L8.365,23.095z"/>
<path fill="#FCC332" d="M8.406,22.643L8.47,22.58l0.379,0.177H8.85l-0.279-0.281l0.066-0.064L9.1,22.875l-0.063,0.062l-0.379-0.179
	l-0.001,0.002l0.278,0.279l-0.067,0.064L8.406,22.643z"/>
<polygon fill-rule="evenodd" clip-rule="evenodd" fill="#3D2812" points="4.257,28.817 4.768,28.31 5.38,28.918 4.87,29.432 "/>
<rect x="2.115" y="26.234" transform="matrix(0.7082 0.706 -0.706 0.7082 19.5201 5.9611)" fill-rule="evenodd" clip-rule="evenodd" fill="#E2D9AC" width="0.866" height="0.725"/>
<rect x="3.323" y="26.562" transform="matrix(0.7088 -0.7054 0.7054 0.7088 -18.4915 10.6745)" fill-rule="evenodd" clip-rule="evenodd" fill="#FCC332" width="0.72" height="2.345"/>
<path fill-rule="evenodd" clip-rule="evenodd" fill="#473015" d="M22.299,11.387l-0.51-0.509L5.687,26.98
	c-0.613,0.61-0.919,1.329-0.919,1.329l0.613,0.608c0,0,0.205-0.815,0.817-1.429L22.299,11.387z"/>
<path fill-rule="evenodd" clip-rule="evenodd" fill="#EDE5B2" d="M20.028,9.116L3.927,25.218c-0.614,0.615-1.43,0.816-1.43,0.816
	l0.612,0.614c0,0,0.714-0.307,1.327-0.918L20.538,9.626L20.028,9.116z"/>
</svg>
