<?xml version="1.0" encoding="utf-8"?>
<!DOCTYPE svg [
	<!ENTITY ns_flows "http://ns.adobe.com/Flows/1.0/">
]>
<svg version="1.1" baseProfile="full" xmlns="http://www.w3.org/2000/svg" xmlns:xlink="http://www.w3.org/1999/xlink"
    x="0px" y="0px" width="24px" height="24px" viewBox="0 0 24 24" enable-background="new 0 0 24 24" xml:space="preserve">
<path d="M22.983,22.986c-0.838,0.834-1.709,1.227-2.047,0.885c-0.127-0.125,0,0,0,0c-0.062-0.059-2.242-2.461-4.719-4.941l0,0
	c-2.242-2.242-4.873-4.518-6.496-6.129c-1.62-1.631-4.313-4.657-4.315-4.659l0,0l-0.18-0.203l1.305-1.42L7.935,5.23l0.202,0.181
	c0.002,0.002,3.028,2.696,4.657,4.316c1.615,1.621,3.887,4.256,6.129,6.498l0,0c2.48,2.475,4.855,4.627,4.961,4.738
	C24.177,21.252,23.856,22.109,22.983,22.986z"/>
<linearGradient id="SVGID_2_" gradientUnits="userSpaceOnUse" x1="13.4365" y1="16.0713" x2="16.0676" y2="13.4403">
	<stop  offset="0.1484" style="stop-color:#7B6C35"/>
	<stop  offset="0.8352" style="stop-color:#B9AA69"/>
</linearGradient>
<path fill-rule="evenodd" clip-rule="evenodd" fill="url(#SVGID_2_)" d="M12.565,9.938c-1.602-1.607-4.627-4.304-4.627-4.304
	L6.736,6.739L5.632,7.942c0,0,2.695,3.027,4.303,4.628c1.607,1.611,4.24,3.893,6.496,6.146c2.477,2.477,4.678,4.904,4.715,4.941
	c0.039,0.039,0.502,0.232,1.623-0.885c1.119-1.115,0.922-1.584,0.896-1.613c-0.025-0.023-2.475-2.244-4.953-4.727
	C16.456,14.178,14.177,11.548,12.565,9.938z"/>
<linearGradient id="SVGID_4_" gradientUnits="userSpaceOnUse" x1="13.4355" y1="16.0703" x2="16.0272" y2="13.4787">
	<stop  offset="0.0934" style="stop-color:#2B2414"/>
	<stop  offset="0.7363" style="stop-color:#624E22"/>
</linearGradient>
<path fill-rule="evenodd" clip-rule="evenodd" fill="url(#SVGID_4_)" d="M22.54,22.996c-0.08-0.01-0.16-0.074-0.264-0.174
	c-0.111-0.117-2.418-2.457-4.895-4.936c-0.922-0.922-2.74-2.6-2.99-2.82c-0.447-0.391-0.408-0.789-0.176-1.176
	c0.242-0.393,0.824-0.883,1.215-0.92c-0.379-0.408-0.746-0.805-1.1-1.188c-1.082,0.611-2.332,1.33-2.512,1.137
	c-0.863-0.846-3.053-3.05-3.981-3.974C7.432,8.54,7.487,8.103,7.717,7.673c0.252-0.471,0.895-0.986,1.276-1.089l0,0
	C8.369,6.019,7.938,5.635,7.938,5.635L6.736,6.739L5.632,7.942c0,0,2.695,3.027,4.303,4.628c1.607,1.611,4.24,3.893,6.496,6.146
	c2.477,2.477,4.678,4.904,4.715,4.941C21.181,23.695,21.587,23.865,22.54,22.996z"/>
<path fill-rule="evenodd" clip-rule="evenodd" fill="#6B5600" d="M18.153,16.838c0,0-0.309-0.373-0.682-0.742
	c-0.373-0.377-0.781-0.76-0.781-0.76s0.455,0.52,0.693,0.762C17.624,16.34,18.153,16.838,18.153,16.838z M12.511,10.955
	c-0.34-0.354-0.945-0.932-0.945-0.932s0.551,0.684,0.869,1.006C12.751,11.354,12.864,11.309,12.511,10.955z M11.698,12.355
	c-0.572-0.572-1.493-1.443-2.98-2.93c-1.15-1.151-2.07-2.011-2.358-2.278L6.293,7.22C6.691,7.604,8.407,9.25,9.35,10.191
	c1.07,1.07,2.89,2.766,3.37,3.166c0.49,0.396,1.416,1.203,2.125,1.912c0.711,0.713,1.457,1.375,1.457,1.375s-1.211-1.254-1.75-1.789
	C14.022,14.324,12.349,13.01,11.698,12.355z M11.341,9.838c0,0-0.744-0.745-1.87-1.87c-0.86-0.86-1.72-1.719-1.95-1.95L7.517,6.021
	c0.229,0.256,1.105,1.235,1.892,2.022C10.322,8.957,11.341,9.838,11.341,9.838z M9.052,8.491c0.149,0.147,0.555,0.546,0.854,0.845
	c0.298,0.296,0.923,0.975,1.078,1.13c0.619,0.62,1.047,1.007,1.789,1.74c0.725,0.725,2.525,2.605,2.887,2.969
	c0.611,0.607,1.445,1.486,1.875,1.914c0.426,0.428,1.396,1.355,1.889,1.846c0.49,0.494,1.143,1.127,1.576,1.559
	c0.439,0.436,1.613,1.432,1.613,1.432s-1.875-1.844-2.545-2.516c-0.67-0.674-1.523-1.428-1.939-1.84
	c-0.578-0.582-1.531-1.604-2.021-2.096c-0.492-0.492-0.641-0.58-0.746-0.684c-0.107-0.102-1.135-1.18-1.404-1.457
	c-0.271-0.266-2.666-2.701-3.106-3.142c-0.441-0.44-0.906-0.894-1.093-1.08C9.569,8.925,9.248,8.541,9.048,8.341
	c-0.2-0.198-0.535-0.497-0.77-0.733c-0.224-0.224-0.83-0.807-1.204-1.18l-0.13,0.119c0.64,0.627,1.04,0.891,1.285,1.136
	C8.484,7.937,8.903,8.341,9.052,8.491z M10.51,11.008c0.456,0.457,2.37,2.18,2.37,2.18s-1.312-1.242-1.971-1.906
	c-0.659-0.66-1.47-1.506-2.259-2.295C7.994,8.328,6.922,7.244,6.584,6.904L6.486,7.01c0.444,0.42,1.9,1.804,2.323,2.23
	C9.311,9.739,10.053,10.55,10.51,11.008z M20.169,19.922c-0.473-0.471-0.939-0.885-1.355-1.301
	c-0.418-0.416-1.615-1.666-1.615-1.666s1.225,1.396,1.68,1.848c0.451,0.455,0.777,0.678,1.314,1.219
	c0.539,0.543,1.359,1.395,1.682,1.715c0.262,0.26,0.836,0.717,1.047,0.881c0.016-0.021,0.039-0.041,0.059-0.061
	c-0.27-0.238-1.119-0.982-1.492-1.355C21.042,20.752,20.642,20.396,20.169,19.922z M21.794,20.396
	c-0.289-0.293-1.115-1.125-1.289-1.295c-0.172-0.176-0.801-0.664-0.801-0.664s0.434,0.473,0.553,0.59
	c0.117,0.117,0.777,0.666,1.266,1.158c0.422,0.42,1.545,1.562,1.854,1.877c0.043-0.057,0.076-0.113,0.109-0.166
	C23.163,21.619,22.044,20.646,21.794,20.396z M10.031,9.864C9.515,9.337,8.892,8.642,8.67,8.421C8.161,7.911,7.156,7.04,6.796,6.684
	l-0.06,0.055l-0.01,0.009c0.368,0.356,1.47,1.396,2.162,2.085C9.334,9.28,10.031,9.864,10.031,9.864z M9.611,9.662
	c0.559,0.559,4.675,4.59,5.204,5.119c0.525,0.523,1.131,1.18,1.441,1.49c0.307,0.309,1.164,1.191,1.164,1.191
	s-1.152-1.307-1.824-1.977c-0.672-0.672-2.312-2.361-3.062-3.123C11.976,11.797,9.611,9.662,9.611,9.662z M10.31,10.321"/>
<linearGradient id="SVGID_7_" gradientUnits="userSpaceOnUse" x1="15.501" y1="13.9971" x2="13.6869" y2="15.8111">
	<stop  offset="0.5165" style="stop-color:#2D2400"/>
	<stop  offset="0.8626" style="stop-color:#211700"/>
</linearGradient>
<path fill-rule="evenodd" clip-rule="evenodd" fill="url(#SVGID_7_)" d="M16.294,17.998c-0.766-0.762-2.242-2.154-2.883-2.793
	c-0.109-0.107-1.409-1.379-1.678-1.65c-0.271-0.275-2.662-2.443-3.103-2.883c-0.44-0.443-0.937-1.043-1.124-1.229
	C7.32,9.256,6.967,8.841,6.769,8.642C6.57,8.443,6.265,8.115,6.029,7.88C5.947,7.798,5.886,7.754,5.853,7.738L5.824,7.763
	c0.016,0.037,0.064,0.1,0.155,0.191c0.255,0.254,0.583,0.659,0.734,0.808C6.861,8.91,7.358,9.398,7.657,9.695
	c0.297,0.299,0.862,0.947,1.018,1.104c0.62,0.618,1.106,0.945,1.839,1.691c0.733,0.723,2.472,2.467,2.835,2.828
	c0.615,0.613,1.508,1.375,1.936,1.803c0.43,0.43,1.398,1.449,1.889,1.938c0.49,0.494,1.139,1.166,1.576,1.602
	c0.434,0.434,1.615,1.537,1.615,1.537c-1.805-1.834-1.746-1.889-2.377-2.516C17.319,19.01,16.706,18.418,16.294,17.998z
	 M20.284,21.209c-0.617-0.611-1.076-1.104-1.727-1.752c-0.648-0.645-1.377-1.332-1.947-1.9c-0.574-0.568-2.219-2.154-2.219-2.154
	s1.623,1.707,2.246,2.32c0.623,0.625,1.121,1.129,1.867,1.871c0.746,0.738,1.869,1.906,2.314,2.344
	c0.371,0.373,1.418,1.312,1.418,1.312l0.162-0.133C22.399,23.117,21.204,22.125,20.284,21.209z M7.922,9.56
	c0.535,0.571,3.905,3.685,4.378,4.204c0.514,0.523,2.68,2.551,2.68,2.551s-1.469-1.467-2.162-2.219
	c-0.693-0.75-3.384-3.088-4.223-3.986C7.754,9.21,6.278,7.746,6.278,7.746L6.149,7.85C6.149,7.85,7.389,8.987,7.922,9.56z
	 M21.347,23.143c-0.41-0.43-0.818-0.768-0.818-0.768s0.479,0.629,0.705,0.828c0.156,0.139,0.32,0.307,0.42,0.408
	c0.043-0.02,0.088-0.037,0.133-0.061C21.696,23.484,21.552,23.365,21.347,23.143z M12.521,12.846
	c-0.004,0.002-0.008,0.004-0.012,0.004c0.207,0.195,0.371,0.338,0.371,0.338S12.726,13.043,12.521,12.846z M14.06,14.516
	c-0.008-0.039-0.008-0.076-0.008-0.115c-0.506-0.438-1.189-1.012-1.77-1.492c-0.018,0.004-0.031,0.01-0.045,0.016
	c0.223,0.205,0.371,0.348,0.482,0.434C13.032,13.615,13.546,14.053,14.06,14.516z M14.149,14.02
	c-0.457-0.475-0.924-0.951-1.287-1.332c-0.039,0.021-0.074,0.041-0.119,0.062c0.512,0.494,0.998,0.969,1.373,1.34
	C14.128,14.07,14.138,14.041,14.149,14.02z M8.412,6.909C7.99,6.486,7.653,6.15,7.521,6.018L7.517,6.021
	C7.642,6.162,7.965,6.523,8.36,6.949C8.378,6.934,8.395,6.923,8.412,6.909z M14.337,13.725c-0.166-0.164-0.301-0.311-0.381-0.391
	c-0.09-0.082-0.396-0.406-0.781-0.801c-0.018,0.008-0.037,0.016-0.055,0.025c0.338,0.35,0.766,0.789,1.178,1.215
	C14.312,13.758,14.323,13.74,14.337,13.725z M7.604,7.932c-0.426-0.429-0.82-0.827-1.008-1.017C6.564,6.955,6.535,6.994,6.505,7.03
	C6.721,7.234,7.14,7.631,7.571,8.043C7.581,8.007,7.592,7.969,7.604,7.932z M7.976,7.311c-0.277-0.27-0.644-0.625-0.902-0.882
	L6.948,6.544L6.944,6.547C7.357,6.95,7.668,7.204,7.904,7.398C7.928,7.369,7.95,7.339,7.976,7.311z M7.542,8.27
	c-0.548-0.53-0.956-0.911-1.15-1.09C6.369,7.209,6.35,7.236,6.333,7.259c0.214,0.206,0.686,0.657,1.223,1.177
	C7.546,8.381,7.541,8.326,7.542,8.27z M7.717,7.673c0.016-0.029,0.038-0.062,0.056-0.09C7.379,7.224,6.991,6.877,6.796,6.684
	L6.754,6.721C6.745,6.731,6.739,6.74,6.73,6.751c0.188,0.182,0.564,0.538,0.979,0.937C7.711,7.683,7.714,7.677,7.717,7.673z"/>
<path d="M7.72,0c0,0,0.628,0.446,1.631,1.448l0,0c1.002,1.001,1.448,1.631,1.448,1.631V3.64l-7.163,7.159H3.078l0,0
	c0,0-0.836-0.652-1.631-1.449l0,0C0.444,8.349,0,7.72,0,7.72V7.161L7.16,0H7.72z"/>
<linearGradient id="SVGID_10_" gradientUnits="userSpaceOnUse" x1="3.792" y1="3.793" x2="7.0057" y2="7.0067">
	<stop  offset="0" style="stop-color:#FFFFFF"/>
	<stop  offset="1" style="stop-color:#666666"/>
</linearGradient>
<path fill-rule="evenodd" clip-rule="evenodd" fill="url(#SVGID_10_)" d="M7.624,0.299H7.285L0.299,7.286v0.34
	c0,0,0.37,0.522,1.359,1.513c0.992,0.991,1.515,1.36,1.515,1.36h0.338l6.986-6.986V3.174c0,0-0.367-0.522-1.359-1.514
	C8.147,0.67,7.624,0.299,7.624,0.299z"/>
<linearGradient id="SVGID_12_" gradientUnits="userSpaceOnUse" x1="3.792" y1="3.793" x2="7.0057" y2="7.0067">
	<stop  offset="0" style="stop-color:#FFFFFF"/>
	<stop  offset="1" style="stop-color:#666666"/>
</linearGradient>
<path fill-rule="evenodd" clip-rule="evenodd" fill="url(#SVGID_12_)" d="M7.624,0.299H7.285L0.299,7.286v0.34
	c0,0,0.37,0.522,1.359,1.513c0.992,0.991,1.515,1.36,1.515,1.36h0.338l6.986-6.986V3.174c0,0-0.367-0.522-1.359-1.514
	C8.147,0.67,7.624,0.299,7.624,0.299z"/>
<linearGradient id="SVGID_14_" gradientUnits="userSpaceOnUse" x1="1.8071" y1="8.9937" x2="8.9638" y2="1.837">
	<stop  offset="0.0769" style="stop-color:#0A0A0A"/>
	<stop  offset="0.533" style="stop-color:#0F0F0F"/>
	<stop  offset="0.9121" style="stop-color:#1A1A1A"/>
</linearGradient>
<path fill-rule="evenodd" clip-rule="evenodd" fill="url(#SVGID_14_)" d="M10.242,3.423c0,0-1.962,2.088-3.347,3.473
	c-1.384,1.383-3.474,3.345-3.474,3.345S2.654,9.844,1.806,8.993c-0.851-0.849-1.25-1.614-1.25-1.614s1.961-2.09,3.347-3.475
	c1.384-1.382,3.473-3.346,3.473-3.346s0.737,0.429,1.587,1.28C9.812,2.686,10.242,3.423,10.242,3.423z"/>
<linearGradient id="SVGID_16_" gradientUnits="userSpaceOnUse" x1="0.2183" y1="7.3687" x2="3.4306" y2="10.581">
	<stop  offset="0" style="stop-color:#999999"/>
	<stop  offset="1" style="stop-color:#1A1A1A"/>
</linearGradient>
<path fill-rule="evenodd" clip-rule="evenodd" fill="url(#SVGID_16_)" d="M3.421,10.241c0,0-0.767-0.397-1.615-1.249
	c-0.851-0.849-1.25-1.614-1.25-1.614L0.299,7.286v0.34c0,0,0.37,0.522,1.359,1.513c0.992,0.991,1.515,1.36,1.515,1.36h0.338
	L3.421,10.241z"/>
<linearGradient id="SVGID_18_" gradientUnits="userSpaceOnUse" x1="7.3667" y1="0.2183" x2="10.5804" y2="3.432">
	<stop  offset="0" style="stop-color:#CCCCCC"/>
	<stop  offset="1" style="stop-color:#333333"/>
</linearGradient>
<path fill-rule="evenodd" clip-rule="evenodd" fill="url(#SVGID_18_)" d="M10.498,3.513V3.174c0,0-0.367-0.522-1.359-1.514
	C8.147,0.67,7.624,0.299,7.624,0.299H7.285l0.092,0.258c0,0,0.737,0.429,1.587,1.28c0.849,0.849,1.278,1.586,1.278,1.586
	L10.498,3.513z"/>
<path fill="#494949" d="M5.02,5.653L4.938,5.733L4.872,5.668l0.232-0.23L5.17,5.502L5.088,5.583l0.424,0.424l-0.07,0.069L5.02,5.653
	z"/>
<path fill="#494949" d="M5.448,5.56L5.121,5.418l0.075-0.074l0.198,0.093l-0.091-0.2l0.075-0.074l0.14,0.326l0.356,0.155
	L5.799,5.719L5.573,5.615l0.104,0.226L5.603,5.916L5.448,5.56z"/>
<path fill="#494949" d="M5.416,5.125l0.105-0.105C5.56,4.98,5.598,4.961,5.646,4.962c0.05,0.001,0.087,0.026,0.146,0.084
	C5.835,5.088,5.859,5.121,5.87,5.165c0.014,0.051,0,0.1-0.049,0.152L5.785,5.353l0.191,0.191l-0.07,0.069L5.416,5.125z M5.719,5.286
	l0.034-0.033c0.056-0.057,0.022-0.092-0.025-0.14C5.681,5.066,5.644,5.029,5.589,5.084L5.551,5.121L5.719,5.286z"/>
<path fill="#191919" d="M5.02,5.594l-0.081,0.08L4.872,5.608l0.232-0.232L5.17,5.442L5.088,5.524l0.424,0.422l-0.07,0.069
	L5.02,5.594z"/>
<path fill="#191919" d="M5.448,5.501L5.121,5.358l0.075-0.073l0.198,0.091L5.303,5.178l0.075-0.075l0.14,0.327l0.356,0.155
	L5.799,5.66L5.573,5.555L5.677,5.78L5.603,5.854L5.448,5.501z"/>
<path fill="#191919" d="M5.416,5.064l0.105-0.105C5.56,4.921,5.598,4.902,5.646,4.903c0.05,0.001,0.087,0.024,0.146,0.083
	C5.835,5.029,5.859,5.061,5.87,5.104c0.014,0.051,0,0.102-0.049,0.153L5.785,5.292l0.191,0.191l-0.07,0.069L5.416,5.064z
	 M5.719,5.226l0.034-0.034c0.056-0.056,0.022-0.091-0.025-0.139C5.681,5.007,5.644,4.969,5.589,5.024L5.551,5.06L5.719,5.226z"/>
<path fill="#2D2D2D" d="M5.02,5.624l-0.081,0.08L4.872,5.637l0.232-0.23L5.17,5.473l-0.082,0.08l0.424,0.424l-0.07,0.069L5.02,5.624
	z"/>
<path fill="#2D2D2D" d="M5.448,5.53L5.121,5.388l0.075-0.073l0.198,0.092L5.303,5.207l0.075-0.074l0.14,0.326l0.356,0.155
	L5.799,5.689L5.573,5.585l0.104,0.225L5.603,5.885L5.448,5.53z"/>
<path fill="#2D2D2D" d="M5.416,5.094l0.105-0.105C5.56,4.952,5.598,4.932,5.646,4.933c0.05,0.001,0.087,0.025,0.146,0.083
	C5.835,5.059,5.859,5.091,5.87,5.134c0.014,0.051,0,0.102-0.049,0.152L5.785,5.322l0.191,0.192l-0.07,0.069L5.416,5.094z
	 M5.719,5.256l0.034-0.033c0.056-0.056,0.022-0.091-0.025-0.14C5.681,5.036,5.644,4.999,5.589,5.053L5.551,5.09L5.719,5.256z"/>
<path d="M2.384,22.744L2.384,22.744c-0.663-0.662-1.182-1.484-1.182-1.484l0.647-0.648c0,0,0.677-0.184,1.086-0.596l0,0
	L16.274,6.678c0.848-0.851,1.732-2.719,1.732-2.719l2.346-2.346l0.613-0.414l3.029,3.033l-0.416,0.611l-2.344,2.345
	c0,0-1.867,0.888-2.717,1.736l0,0L5.183,22.262c-0.411,0.414-0.596,1.086-0.596,1.086l-0.649,0.65
	C3.937,23.998,3.046,23.404,2.384,22.744z"/>
<linearGradient id="SVGID_30_" gradientUnits="userSpaceOnUse" x1="16.4424" y1="5.2998" x2="23.3506" y2="5.2998">
	<stop  offset="0.125" style="stop-color:#CDCDCB"/>
	<stop  offset="0.875" style="stop-color:#A09EA1"/>
</linearGradient>
<path fill-rule="evenodd" clip-rule="evenodd" fill="url(#SVGID_30_)" d="M20.548,1.845L20.548,1.845l-2.262,2.259
	c0,0-0.533,2.336-1.393,3.195l-0.451,0.453l1.002,1.002l0.453-0.453c0.857-0.859,3.189-1.393,3.189-1.393l2.264-2.258v0
	L20.548,1.845z"/>
<path fill-rule="evenodd" clip-rule="evenodd" fill="#616161" d="M17.444,8.754l0.408,0.41l0.451-0.452
	c0.861-0.861,2.783-1.803,2.783-1.803s-2.332,0.534-3.189,1.393L17.444,8.754z"/>
<path fill-rule="evenodd" clip-rule="evenodd" fill="#EBE9E9" d="M16.032,7.341l0.41,0.411l0.451-0.453
	c0.859-0.859,1.393-3.195,1.393-3.195s-0.943,1.925-1.801,2.786L16.032,7.341z"/>
<path fill-rule="evenodd" clip-rule="evenodd" fill="#FFCC33" d="M16.47,7.721L3.557,20.641c-0.491,0.488-1.062,0.738-1.062,0.738
	l1.33,1.324l0,0c0,0,0.246-0.572,0.737-1.061L17.474,8.725L16.47,7.721z"/>
<path fill-rule="evenodd" clip-rule="evenodd" fill="#BFBFBF" d="M1.593,21.291c0,0,0.55,0.789,1.005,1.24
	c0.452,0.455,1.309,1.074,1.309,1.074L1.593,21.291z"/>
<polygon fill-rule="evenodd" clip-rule="evenodd" fill="#EBE9E9" points="23.351,4.65 23.608,4.269 20.929,1.587 20.548,1.845 "/>
<path fill="#BA9C0A" d="M4.637,20.344L4.576,20.4l-0.05-0.045l0.176-0.176l0.05,0.049L4.69,20.287l0.322,0.324l-0.053,0.051
	L4.637,20.344z"/>
<path fill="#BA9C0A" d="M4.757,20.123l0.158-0.16l0.05,0.053l-0.104,0.104l0.108,0.109l0.092-0.09l0.05,0.047l-0.091,0.088
	l0.108,0.113l0.105-0.109l0.053,0.057l-0.159,0.158L4.757,20.123z"/>
<path fill="#BA9C0A" d="M5.206,20.025L4.96,19.916l0.057-0.053l0.15,0.068l-0.071-0.148l0.057-0.059l0.106,0.25l0.272,0.117
	l-0.058,0.057l-0.17-0.08l0.08,0.168l-0.057,0.061L5.206,20.025z"/>
<path fill="#BA9C0A" d="M5.3,19.68L5.238,19.74l-0.05-0.049l0.177-0.176l0.05,0.047l-0.062,0.062l0.321,0.32L5.62,19.998L5.3,19.68z
	"/>
<path fill="#BA9C0A" d="M5.418,19.457L5.5,19.381c0.028-0.029,0.056-0.045,0.093-0.043c0.038,0,0.067,0.02,0.109,0.062
	c0.034,0.033,0.053,0.057,0.06,0.09c0.009,0.037,0,0.076-0.037,0.115l-0.029,0.025l0.146,0.148L5.792,19.83L5.418,19.457z
	 M5.648,19.584l0.026-0.027c0.043-0.041,0.019-0.068-0.019-0.105c-0.036-0.035-0.063-0.064-0.105-0.021l-0.028,0.027L5.648,19.584z"
	/>
<path fill="#BA9C0A" d="M5.701,19.174l0.045-0.045L6.2,19.42l-0.052,0.053L6.052,19.41l-0.072,0.072l0.063,0.094L5.99,19.629
	L5.701,19.174z M5.832,19.26H5.83l0.11,0.162l0.052-0.053L5.832,19.26z"/>
<path fill="#BA9C0A" d="M5.944,19.035l-0.062,0.061l-0.051-0.047l0.177-0.182l0.049,0.053l-0.062,0.062l0.321,0.32l-0.052,0.057
	L5.944,19.035z"/>
<path fill="#BA9C0A" d="M6.148,18.828l-0.062,0.064l-0.049-0.055l0.176-0.17l0.049,0.049L6.2,18.777l0.322,0.324L6.469,19.15
	L6.148,18.828z"/>
<path fill="#BA9C0A" d="M6.267,18.611l0.158-0.158l0.05,0.049l-0.105,0.109l0.109,0.105l0.092-0.092l0.05,0.053l-0.091,0.088
	l0.109,0.111l0.106-0.107l0.053,0.053l-0.159,0.162L6.267,18.611z"/>
<path fill="#BA9C0A" d="M6.491,18.389l0.086-0.088c0.062-0.062,0.129-0.059,0.202,0.014c0.043,0.045,0.061,0.088,0.046,0.141
	l0.228,0.113l-0.057,0.057l-0.208-0.111l-0.031,0.033l0.158,0.158l-0.053,0.051L6.491,18.389z M6.709,18.498l0.031-0.027
	c0.035-0.039,0.021-0.064-0.017-0.104c-0.036-0.035-0.062-0.051-0.103-0.01l-0.027,0.025L6.709,18.498z"/>
<path fill="#BA9C0A" d="M6.743,18.137l0.05-0.053l0.304,0.143h0.001L6.875,18l0.053-0.051l0.371,0.371l-0.051,0.051l-0.304-0.143
	l-0.001,0.004l0.223,0.223l-0.053,0.053L6.743,18.137z"/>
<path fill="#ECD74C" d="M4.637,20.391l-0.061,0.061l-0.05-0.053l0.176-0.172l0.05,0.047L4.69,20.336l0.322,0.32l-0.053,0.055
	L4.637,20.391z"/>
<path fill="#ECD74C" d="M4.757,20.174l0.158-0.16l0.05,0.051l-0.104,0.104l0.108,0.105l0.092-0.088l0.05,0.047l-0.091,0.092
	l0.108,0.111l0.105-0.107l0.053,0.057l-0.159,0.156L4.757,20.174z"/>
<path fill="#ECD74C" d="M5.206,20.072L4.96,19.967l0.057-0.059l0.15,0.07L5.097,19.83l0.057-0.055l0.106,0.246l0.272,0.119
	l-0.058,0.051l-0.17-0.076l0.08,0.17l-0.057,0.059L5.206,20.072z"/>
<path fill="#ECD74C" d="M5.3,19.729l-0.062,0.061l-0.05-0.049l0.177-0.18l0.05,0.051l-0.062,0.062l0.321,0.318L5.62,20.053
	L5.3,19.729z"/>
<path fill="#ECD74C" d="M5.418,19.51L5.5,19.43c0.028-0.029,0.056-0.047,0.093-0.045c0.038,0,0.067,0.021,0.109,0.064
	c0.034,0.031,0.053,0.057,0.06,0.088c0.009,0.039,0,0.076-0.037,0.117l-0.029,0.027l0.146,0.146l-0.052,0.053L5.418,19.51z
	 M5.648,19.629l0.026-0.023c0.043-0.045,0.019-0.072-0.019-0.107c-0.036-0.035-0.063-0.062-0.105-0.02l-0.028,0.027L5.648,19.629z"
	/>
<path fill="#ECD74C" d="M5.701,19.223l0.045-0.043L6.2,19.469l-0.052,0.053l-0.096-0.064l-0.072,0.072l0.063,0.096L5.99,19.68
	L5.701,19.223z M5.832,19.309H5.83l0.11,0.162l0.052-0.051L5.832,19.309z"/>
<path fill="#ECD74C" d="M5.944,19.082l-0.062,0.062l-0.051-0.053l0.177-0.174l0.049,0.051l-0.062,0.062l0.321,0.32l-0.052,0.057
	L5.944,19.082z"/>
<path fill="#ECD74C" d="M6.148,18.879l-0.062,0.061l-0.049-0.049l0.176-0.178l0.049,0.049L6.2,18.824l0.322,0.322l-0.053,0.053
	L6.148,18.879z"/>
<path fill="#ECD74C" d="M6.267,18.662L6.424,18.5l0.05,0.053l-0.105,0.105l0.109,0.105l0.092-0.086l0.05,0.045l-0.091,0.09
	l0.109,0.111l0.106-0.107l0.053,0.053l-0.159,0.162L6.267,18.662z"/>
<path fill="#ECD74C" d="M6.491,18.436l0.086-0.086c0.062-0.062,0.129-0.057,0.202,0.016c0.043,0.043,0.061,0.086,0.046,0.139
	l0.228,0.113l-0.057,0.059l-0.208-0.111l-0.031,0.031l0.158,0.156l-0.053,0.055L6.491,18.436z M6.709,18.549l0.031-0.031
	c0.035-0.037,0.021-0.062-0.017-0.102c-0.036-0.035-0.062-0.051-0.103-0.012l-0.027,0.027L6.709,18.549z"/>
<path fill="#ECD74C" d="M6.743,18.186l0.05-0.051l0.304,0.139h0.001l-0.224-0.223l0.053-0.057l0.371,0.373l-0.051,0.055
	l-0.304-0.146l-0.001,0.002l0.223,0.225l-0.053,0.053L6.743,18.186z"/>
<path fill="#FCC332" d="M4.637,20.365l-0.061,0.062l-0.05-0.049l0.176-0.182l0.05,0.055L4.69,20.312l0.322,0.322l-0.053,0.055
	L4.637,20.365z"/>
<path fill="#FCC332" d="M4.757,20.148l0.158-0.162l0.05,0.049l-0.104,0.109l0.108,0.109l0.092-0.094l0.05,0.049l-0.091,0.094
	l0.108,0.107l0.105-0.104l0.053,0.051l-0.159,0.16L4.757,20.148z"/>
<path fill="#FCC332" d="M5.206,20.053L4.96,19.941l0.057-0.057l0.15,0.07l-0.071-0.148l0.057-0.057l0.106,0.242l0.272,0.121
	l-0.058,0.061l-0.17-0.08l0.08,0.172l-0.057,0.049L5.206,20.053z"/>
<path fill="#FCC332" d="M5.3,19.705l-0.062,0.061l-0.05-0.053l0.177-0.176l0.05,0.051L5.353,19.65l0.321,0.322L5.62,20.025
	L5.3,19.705z"/>
<path fill="#FCC332" d="M5.418,19.482L5.5,19.406c0.028-0.031,0.056-0.045,0.093-0.043c0.038,0,0.067,0.02,0.109,0.061
	c0.034,0.033,0.053,0.057,0.06,0.092c0.009,0.037,0,0.074-0.037,0.113l-0.029,0.029l0.146,0.145l-0.052,0.053L5.418,19.482z
	 M5.648,19.605l0.026-0.023c0.043-0.047,0.019-0.07-0.019-0.105c-0.036-0.037-0.063-0.064-0.105-0.023L5.522,19.48L5.648,19.605z"/>
<path fill="#FCC332" d="M5.701,19.199l0.045-0.045L6.2,19.443l-0.052,0.053l-0.096-0.061l-0.072,0.072L6.043,19.6L5.99,19.656
	L5.701,19.199z M5.832,19.287H5.83l0.11,0.16l0.052-0.055L5.832,19.287z"/>
<path fill="#FCC332" d="M5.944,19.059l-0.062,0.062l-0.051-0.049l0.177-0.178l0.049,0.051l-0.062,0.061l0.321,0.324l-0.052,0.053
	L5.944,19.059z"/>
<path fill="#FCC332" d="M6.148,18.852l-0.062,0.064l-0.049-0.053l0.176-0.174l0.049,0.049L6.2,18.799l0.322,0.324l-0.053,0.051
	L6.148,18.852z"/>
<path fill="#FCC332" d="M6.267,18.637l0.158-0.158l0.05,0.047l-0.105,0.107l0.109,0.109l0.092-0.09l0.05,0.047l-0.091,0.092
	l0.109,0.107l0.106-0.104l0.053,0.051l-0.159,0.162L6.267,18.637z"/>
<path fill="#FCC332" d="M6.491,18.412l0.086-0.084c0.062-0.066,0.129-0.059,0.202,0.012c0.043,0.043,0.061,0.088,0.046,0.139
	l0.228,0.113L6.996,18.65l-0.208-0.111l-0.031,0.033l0.158,0.156l-0.053,0.051L6.491,18.412z M6.709,18.521l0.031-0.029
	c0.035-0.037,0.021-0.062-0.017-0.1c-0.036-0.035-0.062-0.051-0.103-0.012L6.594,18.41L6.709,18.521z"/>
<path fill="#FCC332" d="M6.743,18.162l0.05-0.053l0.304,0.143h0.001l-0.224-0.229l0.053-0.051l0.371,0.373l-0.051,0.049
	l-0.304-0.141l-0.001,0.002l0.223,0.223l-0.053,0.051L6.743,18.162z"/>
<rect x="3.577" y="22.806" transform="matrix(-0.705 0.7092 -0.7092 -0.705 23.011 36.733)" fill-rule="evenodd" clip-rule="evenodd" fill="#3D2812" width="0.578" height="0.693"/>
<rect x="1.695" y="21.043" transform="matrix(0.7046 0.7096 -0.7096 0.7046 15.7404 4.8511)" fill-rule="evenodd" clip-rule="evenodd" fill="#E2D9AC" width="0.696" height="0.58"/>
<rect x="2.664" y="21.303" transform="matrix(0.705 -0.7092 0.7092 0.705 -14.9045 8.6569)" fill-rule="evenodd" clip-rule="evenodd" fill="#FCC332" width="0.578" height="1.881"/>
<path fill-rule="evenodd" clip-rule="evenodd" fill="#473015" d="M17.882,9.133l-0.408-0.407L4.561,21.643
	c-0.491,0.488-0.737,1.061-0.737,1.061l0.492,0.488c0,0,0.164-0.654,0.655-1.143L17.882,9.133z"/>
<path fill-rule="evenodd" clip-rule="evenodd" fill="#EDE5B2" d="M16.063,7.312L3.15,20.229c-0.495,0.492-1.148,0.652-1.148,0.652
	l0.491,0.498c0,0,0.572-0.25,1.063-0.738L16.47,7.721L16.063,7.312z"/>
</svg>
